<?xml version="1.0" encoding="UTF-8" standalone="no"?>
<svg
   xmlns:dc="http://purl.org/dc/elements/1.1/"
   xmlns:cc="http://creativecommons.org/ns#"
   xmlns:rdf="http://www.w3.org/1999/02/22-rdf-syntax-ns#"
   xmlns:svg="http://www.w3.org/2000/svg"
   xmlns="http://www.w3.org/2000/svg"
   xmlns:sodipodi="http://sodipodi.sourceforge.net/DTD/sodipodi-0.dtd"
   xmlns:inkscape="http://www.inkscape.org/namespaces/inkscape"
   height="575px"
   version="1.1"
   viewBox="-471.8100575 11229.2923425 5641.235115 5403.618315"
   width="600px"
   id="svg2"
   inkscape:version="0.91 r13725"
   sodipodi:docname="03202.svg">
  <metadata
     id="metadata90">
    <rdf:RDF>
      <cc:Work
         rdf:about="">
        <dc:format>image/svg+xml</dc:format>
        <dc:type
           rdf:resource="http://purl.org/dc/dcmitype/StillImage" />
        <dc:title></dc:title>
      </cc:Work>
    </rdf:RDF>
  </metadata>
  <sodipodi:namedview
     pagecolor="#ffffff"
     bordercolor="#666666"
     borderopacity="1"
     objecttolerance="10"
     gridtolerance="10"
     guidetolerance="10"
     inkscape:pageopacity="0"
     inkscape:pageshadow="2"
     inkscape:window-width="1280"
     inkscape:window-height="751"
     id="namedview88"
     showgrid="false"
     inkscape:zoom="0.88"
     inkscape:cx="257.36229"
     inkscape:cy="287.5"
     inkscape:window-x="0"
     inkscape:window-y="1"
     inkscape:window-maximized="1"
     inkscape:current-layer="svg2" />
  <defs
     id="defs4" />
  <path
     d="M 0.25,11681.551 L 999.75,11681.551 L 999.75,12681.151 L 0.25,12681.151 L 0.25,11681.551"
     fill="none"
     stroke="#000000"
     stroke-width="4.697115"
     id="path6" />
  <path
     d="M 3697.865,11681.551 L 4697.365,11681.551 L 4697.365,12681.151 L 3697.865,12681.151 L 3697.865,11681.551"
     fill="none"
     stroke="#000000"
     stroke-width="4.697115"
     id="path8" />
  <path
     d="M 250.25,12680.151 L 749.75,12680.151 L 749.75,15682.151 L 250.25,15682.151 L 250.25,12680.151"
     fill="none"
     stroke="#000000"
     stroke-width="4.697115"
     id="path10" />
  <path
     d="M 3947.865,12680.151 L 4447.365,12680.151 L 4447.365,16180.651 L 3947.865,16180.651 L 3947.865,12680.151"
     fill="none"
     stroke="#000000"
     stroke-width="4.697115"
     id="path12" />
  <path
     d="M 1036.558,13122.943 L 1261.058,13122.943 L 1261.058,13197.443 L 1036.558,13197.443 L 1036.558,13122.943"
     fill="none"
     stroke="#000000"
     stroke-width="4.697115"
     id="path14" />
  <path
     d="M 1336.558,13122.943 L 1561.058,13122.943 L 1561.058,13197.443 L 1336.558,13197.443 L 1336.558,13122.943"
     fill="none"
     stroke="#000000"
     stroke-width="4.697115"
     id="path16" />
  <path
     d="M 1636.557,13122.943 L 1861.058,13122.943 L 1861.058,13197.443 L 1636.557,13197.443 L 1636.557,13122.943"
     fill="none"
     stroke="#000000"
     stroke-width="4.697115"
     id="path18" />
  <path
     d="M 1936.558,13122.943 L 2086.557,13122.943 L 2086.557,13197.443 L 1936.558,13197.443 L 1936.558,13122.943"
     fill="none"
     stroke="#000000"
     stroke-width="4.697115"
     id="path20" />
  <path
     d="M 2086.557,13122.943 L 2161.058,13122.943 L 2161.058,16180.652 L 2086.557,16180.652 L 2086.557,13122.943"
     fill="none"
     stroke="#000000"
     stroke-width="4.697115"
     id="path22" />
  <path
     d="M 2236.558,13122.943 L 2461.058,13122.943 L 2461.058,13197.443 L 2236.558,13197.443 L 2236.558,13122.943"
     fill="none"
     stroke="#000000"
     stroke-width="4.697115"
     id="path24" />
  <path
     d="M 2536.557,13122.943 L 2686.557,13122.943 L 2686.557,13197.443 L 2536.557,13197.443 L 2536.557,13122.943"
     fill="none"
     stroke="#000000"
     stroke-width="4.697115"
     id="path26" />
  <path
     d="M 2686.557,13122.943 L 2761.058,13122.943 L 2761.058,16180.652 L 2686.557,16180.652 L 2686.557,13122.943"
     fill="none"
     stroke="#000000"
     stroke-width="4.697115"
     id="path28" />
  <path
     d="M 2836.558,13122.943 L 3061.058,13122.943 L 3061.058,13197.443 L 2836.558,13197.443 L 2836.558,13122.943"
     fill="none"
     stroke="#000000"
     stroke-width="4.697115"
     id="path30" />
  <path
     d="M 3136.557,13122.943 L 3361.057,13122.943 L 3361.057,13197.443 L 3136.557,13197.443 L 3136.557,13122.943"
     fill="none"
     stroke="#000000"
     stroke-width="4.697115"
     id="path32" />
  <path
     d="M 3436.558,13122.943 L 3661.058,13122.943 L 3661.058,13197.443 L 3436.558,13197.443 L 3436.558,13122.943"
     fill="none"
     stroke="#000000"
     stroke-width="4.697115"
     id="path34" />
  <path
     d="M 1036.558,13196.443 L 1111.058,13196.443 L 1111.058,15682.151 L 1036.558,15682.151 L 1036.558,13196.443"
     fill="none"
     stroke="#000000"
     stroke-width="4.697115"
     id="path36" />
  <path
     d="M 1186.558,13196.443 L 1261.058,13196.443 L 1261.058,16107.151 L 1186.558,16107.151 L 1186.558,13196.443"
     fill="none"
     stroke="#000000"
     stroke-width="4.697115"
     id="path38" />
  <path
     d="M 1336.558,13196.443 L 1411.058,13196.443 L 1411.058,16107.151 L 1336.558,16107.151 L 1336.558,13196.443"
     fill="none"
     stroke="#000000"
     stroke-width="4.697115"
     id="path40" />
  <path
     d="M 1486.558,13196.443 L 1561.058,13196.443 L 1561.058,16107.152 L 1486.558,16107.152 L 1486.558,13196.443"
     fill="none"
     stroke="#000000"
     stroke-width="4.697115"
     id="path42" />
  <path
     d="M 1636.558,13196.443 L 1711.058,13196.443 L 1711.058,16107.152 L 1636.558,16107.152 L 1636.558,13196.443"
     fill="none"
     stroke="#000000"
     stroke-width="4.697115"
     id="path44" />
  <path
     d="M 1786.558,13196.443 L 1861.058,13196.443 L 1861.058,16107.152 L 1786.558,16107.152 L 1786.558,13196.443"
     fill="none"
     stroke="#000000"
     stroke-width="4.697115"
     id="path46" />
  <path
     d="M 1936.558,13196.443 L 2011.058,13196.443 L 2011.058,16107.152 L 1936.558,16107.152 L 1936.558,13196.443"
     fill="none"
     stroke="#000000"
     stroke-width="4.697115"
     id="path48" />
  <path
     d="M 2236.558,13196.443 L 2311.057,13196.443 L 2311.057,16107.152 L 2236.558,16107.152 L 2236.558,13196.443"
     fill="none"
     stroke="#000000"
     stroke-width="4.697115"
     id="path50" />
  <path
     d="M 2386.558,13196.443 L 2461.058,13196.443 L 2461.058,16107.152 L 2386.558,16107.152 L 2386.558,13196.443"
     fill="none"
     stroke="#000000"
     stroke-width="4.697115"
     id="path52" />
  <path
     d="M 2536.558,13196.443 L 2611.058,13196.443 L 2611.058,16107.152 L 2536.558,16107.152 L 2536.558,13196.443"
     fill="none"
     stroke="#000000"
     stroke-width="4.697115"
     id="path54" />
  <path
     d="M 2836.558,13196.443 L 2911.057,13196.443 L 2911.057,16107.152 L 2836.558,16107.152 L 2836.558,13196.443"
     fill="none"
     stroke="#000000"
     stroke-width="4.697115"
     id="path56" />
  <path
     d="M 2986.558,13196.443 L 3061.058,13196.443 L 3061.058,16107.152 L 2986.558,16107.152 L 2986.558,13196.443"
     fill="none"
     stroke="#000000"
     stroke-width="4.697115"
     id="path58" />
  <path
     d="M 3136.558,13196.443 L 3211.058,13196.443 L 3211.058,16107.152 L 3136.558,16107.152 L 3136.558,13196.443"
     fill="none"
     stroke="#000000"
     stroke-width="4.697115"
     id="path60" />
  <path
     d="M 3286.558,13196.443 L 3361.057,13196.443 L 3361.057,16107.152 L 3286.558,16107.152 L 3286.558,13196.443"
     fill="none"
     stroke="#000000"
     stroke-width="4.697115"
     id="path62" />
  <path
     d="M 3436.558,13196.443 L 3511.058,13196.443 L 3511.058,16107.152 L 3436.558,16107.152 L 3436.558,13196.443"
     fill="none"
     stroke="#000000"
     stroke-width="4.697115"
     id="path64" />
  <path
     d="M 3586.558,13196.443 L 3661.058,13196.443 L 3661.058,15682.152 L 3586.558,15682.152 L 3586.558,13196.443"
     fill="none"
     stroke="#000000"
     stroke-width="4.697115"
     id="path66" />
  <path
     d="M 250.25,15681.151 L 1111.058,15681.151 L 1111.058,16180.651 L 250.25,16180.651 L 250.25,15681.151"
     fill="none"
     stroke="#000000"
     stroke-width="4.697115"
     id="path68" />
  <path
     d="M 3586.557,15681.152 L 3947.865,15681.152 L 3947.865,16180.651 L 3586.557,16180.651 L 3586.557,15681.152"
     fill="none"
     stroke="#000000"
     stroke-width="4.697115"
     id="path70" />
  <path
     d="M 1186.558,16106.151 L 1411.058,16106.151 L 1411.058,16180.651 L 1186.558,16180.651 L 1186.558,16106.151"
     fill="none"
     stroke="#000000"
     stroke-width="4.697115"
     id="path72" />
  <path
     d="M 1486.558,16106.152 L 1711.058,16106.152 L 1711.058,16180.652 L 1486.558,16180.652 L 1486.558,16106.152"
     fill="none"
     stroke="#000000"
     stroke-width="4.697115"
     id="path74" />
  <path
     d="M 1786.558,16106.152 L 2011.058,16106.152 L 2011.058,16180.652 L 1786.558,16180.652 L 1786.558,16106.152"
     fill="none"
     stroke="#000000"
     stroke-width="4.697115"
     id="path76" />
  <path
     d="M 2161.058,16106.152 L 2311.057,16106.152 L 2311.057,16180.652 L 2161.058,16180.652 L 2161.058,16106.152"
     fill="none"
     stroke="#000000"
     stroke-width="4.697115"
     id="path78" />
  <path
     d="M 2386.558,16106.152 L 2611.058,16106.152 L 2611.058,16180.652 L 2386.558,16180.652 L 2386.558,16106.152"
     fill="none"
     stroke="#000000"
     stroke-width="4.697115"
     id="path80" />
  <path
     d="M 2761.058,16106.152 L 2911.057,16106.152 L 2911.057,16180.652 L 2761.058,16180.652 L 2761.058,16106.152"
     fill="none"
     stroke="#000000"
     stroke-width="4.697115"
     id="path82" />
  <path
     d="M 2986.558,16106.152 L 3211.058,16106.152 L 3211.058,16180.652 L 2986.558,16180.652 L 2986.558,16106.152"
     fill="none"
     stroke="#000000"
     stroke-width="4.697115"
     id="path84" />
  <path
     d="M 3286.558,16106.152 L 3511.058,16106.152 L 3511.058,16180.652 L 3286.558,16180.652 L 3286.558,16106.152"
     fill="none"
     stroke="#000000"
     stroke-width="4.697115"
     id="path86" />
</svg>
