<?xml version="1.0" ?>
<svg baseProfile="full" height="181px" version="1.1" viewBox="6.93540785 8.40800785 25.2501843 7.5789843" width="600px" xmlns="http://www.w3.org/2000/svg" xmlns:ev="http://www.w3.org/2001/xml-events" xmlns:xlink="http://www.w3.org/1999/xlink">
	<defs/>
	<path d="M 9.04835,9.04835 L 30.07265,9.04835 L 30.07265,15.34665 L 9.04835,15.34665 L 9.04835,9.04835" fill="none" stroke="#000000" stroke-width="0.0210243"/>
	<path d="M 15.809,14.391 L 17.281,14.391 L 17.281,10.004 L 15.809,10.004 L 15.809,11.473 L 12.906,11.473 L 12.906,10.746 L 10.004,10.746 L 10.004,13.648 L 12.906,13.648 L 12.906,12.922 L 15.809,12.922 L 15.809,14.391" fill="none" stroke="#000000" stroke-width="0.0210243"/>
	<path d="M 16.2506,10.129 L 21.828,10.129 L 21.828,10.352 L 16.2506,10.352 L 16.2506,10.129" fill="none" stroke="#000000" stroke-width="0.0210243"/>
	<path d="M 16.2506,10.555 L 21.828,10.555 L 21.828,10.777 L 16.2506,10.777 L 16.2506,10.555" fill="none" stroke="#000000" stroke-width="0.0210243"/>
	<path d="M 16.2506,10.977 L 21.828,10.977 L 21.828,11.203 L 16.2506,11.203 L 16.2506,10.977" fill="none" stroke="#000000" stroke-width="0.0210243"/>
	<path d="M 16.2506,11.402 L 21.828,11.402 L 21.828,11.625 L 16.2506,11.625 L 16.2506,11.402" fill="none" stroke="#000000" stroke-width="0.0210243"/>
	<path d="M 15.8256,11.828 L 21.828,11.828 L 21.828,12.051 L 15.8256,12.051 L 15.8256,11.828" fill="none" stroke="#000000" stroke-width="0.0210243"/>
	<path d="M 15.8256,12.254 L 21.828,12.254 L 21.828,12.477 L 15.8256,12.477 L 15.8256,12.254" fill="none" stroke="#000000" stroke-width="0.0210243"/>
	<path d="M 15.8256,12.68 L 21.828,12.68 L 21.828,12.902 L 15.8256,12.902 L 15.8256,12.68" fill="none" stroke="#000000" stroke-width="0.0210243"/>
	<path d="M 16.2506,13.105 L 21.828,13.105 L 21.828,13.328 L 16.2506,13.328 L 16.2506,13.105" fill="none" stroke="#000000" stroke-width="0.0210243"/>
	<path d="M 16.2506,13.531 L 21.828,13.531 L 21.828,13.754 L 16.2506,13.754 L 16.2506,13.531" fill="none" stroke="#000000" stroke-width="0.0210243"/>
	<path d="M 16.2506,13.953 L 21.828,13.953 L 21.828,14.176 L 16.2506,14.176 L 16.2506,13.953" fill="none" stroke="#000000" stroke-width="0.0210243"/>
	<path d="M 21.84,14.391 L 23.309,14.391 L 23.309,12.922 L 26.215,12.922 L 26.215,13.648 L 29.117,13.648 L 29.117,10.746 L 26.215,10.746 L 26.215,11.473 L 23.309,11.473 L 23.309,10.004 L 21.84,10.004 L 21.84,14.391" fill="none" stroke="#000000" stroke-width="0.0210243"/>
	<path d="M 17.293,10.34 L 22.8683,10.34 L 22.8683,10.563 L 17.293,10.563 L 17.293,10.34" fill="none" stroke="#000000" stroke-width="0.0210243"/>
	<path d="M 17.293,10.766 L 22.8683,10.766 L 22.8683,10.988 L 17.293,10.988 L 17.293,10.766" fill="none" stroke="#000000" stroke-width="0.0210243"/>
	<path d="M 17.293,11.191 L 22.8683,11.191 L 22.8683,11.414 L 17.293,11.414 L 17.293,11.191" fill="none" stroke="#000000" stroke-width="0.0210243"/>
	<path d="M 17.293,11.613 L 23.2954,11.613 L 23.2954,11.84 L 17.293,11.84 L 17.293,11.613" fill="none" stroke="#000000" stroke-width="0.0210243"/>
	<path d="M 17.293,12.043 L 23.2954,12.043 L 23.2954,12.266 L 17.293,12.266 L 17.293,12.043" fill="none" stroke="#000000" stroke-width="0.0210243"/>
	<path d="M 17.293,12.465 L 23.2954,12.465 L 23.2954,12.688 L 17.293,12.688 L 17.293,12.465" fill="none" stroke="#000000" stroke-width="0.0210243"/>
	<path d="M 17.293,12.891 L 22.8683,12.891 L 22.8683,13.113 L 17.293,13.113 L 17.293,12.891" fill="none" stroke="#000000" stroke-width="0.0210243"/>
	<path d="M 17.293,13.316 L 22.8683,13.316 L 22.8683,13.539 L 17.293,13.539 L 17.293,13.316" fill="none" stroke="#000000" stroke-width="0.0210243"/>
	<path d="M 17.293,13.742 L 22.8683,13.742 L 22.8683,13.965 L 17.293,13.965 L 17.293,13.742" fill="none" stroke="#000000" stroke-width="0.0210243"/>
	<path d="M 17.293,14.168 L 22.8683,14.168 L 22.8683,14.391 L 17.293,14.391 L 17.293,14.168" fill="none" stroke="#000000" stroke-width="0.0210243"/>
</svg>
