<?xml version="1.0" ?>
<svg baseProfile="full" height="175px" version="1.1" viewBox="6.93476565 8.42576565 25.2554687 7.3634687" width="600px" xmlns="http://www.w3.org/2000/svg" xmlns:ev="http://www.w3.org/2001/xml-events" xmlns:xlink="http://www.w3.org/1999/xlink">
	<defs/>
	<path d="M 9.04815,9.04815 L 30.07685,9.04815 L 30.07685,15.16685 L 9.04815,15.16685 L 9.04815,9.04815" fill="none" stroke="#000000" stroke-width="0.0210287"/>
	<path d="M 15.809,14.211 L 17.281,14.211 L 17.281,10.004 L 15.809,10.004 L 15.809,11.379 L 12.906,11.379 L 12.906,10.656 L 10.004,10.656 L 10.004,13.559 L 12.906,13.559 L 12.906,12.832 L 15.809,12.832 L 15.809,14.211" fill="none" stroke="#000000" stroke-width="0.0210287"/>
	<path d="M 16.2506,10.203 L 21.828,10.203 L 21.828,10.441 L 16.2506,10.441 L 16.2506,10.203" fill="none" stroke="#000000" stroke-width="0.0210287"/>
	<path d="M 16.2506,10.598 L 21.828,10.598 L 21.828,10.836 L 16.2506,10.836 L 16.2506,10.598" fill="none" stroke="#000000" stroke-width="0.0210287"/>
	<path d="M 16.2506,10.996 L 21.828,10.996 L 21.828,11.234 L 16.2506,11.234 L 16.2506,10.996" fill="none" stroke="#000000" stroke-width="0.0210287"/>
	<path d="M 15.8256,11.391 L 21.828,11.391 L 21.828,11.633 L 15.8256,11.633 L 15.8256,11.391" fill="none" stroke="#000000" stroke-width="0.0210287"/>
	<path d="M 15.8256,11.789 L 21.828,11.789 L 21.828,12.027 L 15.8256,12.027 L 15.8256,11.789" fill="none" stroke="#000000" stroke-width="0.0210287"/>
	<path d="M 15.8256,12.188 L 21.828,12.188 L 21.828,12.422 L 15.8256,12.422 L 15.8256,12.188" fill="none" stroke="#000000" stroke-width="0.0210287"/>
	<path d="M 15.8256,12.582 L 21.828,12.582 L 21.828,12.82 L 15.8256,12.82 L 15.8256,12.582" fill="none" stroke="#000000" stroke-width="0.0210287"/>
	<path d="M 16.2506,12.98 L 21.828,12.98 L 21.828,13.219 L 16.2506,13.219 L 16.2506,12.98" fill="none" stroke="#000000" stroke-width="0.0210287"/>
	<path d="M 16.2506,13.379 L 21.828,13.379 L 21.828,13.613 L 16.2506,13.613 L 16.2506,13.379" fill="none" stroke="#000000" stroke-width="0.0210287"/>
	<path d="M 16.2506,13.773 L 21.828,13.773 L 21.828,14.012 L 16.2506,14.012 L 16.2506,13.773" fill="none" stroke="#000000" stroke-width="0.0210287"/>
	<path d="M 21.84,14.211 L 23.316,14.211 L 23.316,12.832 L 26.215,12.832 L 26.215,13.559 L 29.121,13.559 L 29.121,10.656 L 26.215,10.656 L 26.215,11.379 L 23.316,11.379 L 23.316,10.004 L 21.84,10.004 L 21.84,14.211" fill="none" stroke="#000000" stroke-width="0.0210287"/>
	<path d="M 17.293,10.402 L 22.8732,10.402 L 22.8732,10.637 L 17.293,10.637 L 17.293,10.402" fill="none" stroke="#000000" stroke-width="0.0210287"/>
	<path d="M 17.293,10.797 L 22.8732,10.797 L 22.8732,11.035 L 17.293,11.035 L 17.293,10.797" fill="none" stroke="#000000" stroke-width="0.0210287"/>
	<path d="M 17.293,11.191 L 22.8732,11.191 L 22.8732,11.434 L 17.293,11.434 L 17.293,11.191" fill="none" stroke="#000000" stroke-width="0.0210287"/>
	<path d="M 17.293,11.59 L 23.2962,11.59 L 23.2962,11.828 L 17.293,11.828 L 17.293,11.59" fill="none" stroke="#000000" stroke-width="0.0210287"/>
	<path d="M 17.293,11.988 L 23.2962,11.988 L 23.2962,12.227 L 17.293,12.227 L 17.293,11.988" fill="none" stroke="#000000" stroke-width="0.0210287"/>
	<path d="M 17.293,12.383 L 23.2962,12.383 L 23.2962,12.621 L 17.293,12.621 L 17.293,12.383" fill="none" stroke="#000000" stroke-width="0.0210287"/>
	<path d="M 17.293,12.781 L 22.8732,12.781 L 22.8732,13.02 L 17.293,13.02 L 17.293,12.781" fill="none" stroke="#000000" stroke-width="0.0210287"/>
	<path d="M 17.293,13.18 L 22.8732,13.18 L 22.8732,13.418 L 17.293,13.418 L 17.293,13.18" fill="none" stroke="#000000" stroke-width="0.0210287"/>
	<path d="M 17.293,13.574 L 22.8732,13.574 L 22.8732,13.813 L 17.293,13.813 L 17.293,13.574" fill="none" stroke="#000000" stroke-width="0.0210287"/>
	<path d="M 17.293,13.973 L 22.8732,13.973 L 22.8732,14.211 L 17.293,14.211 L 17.293,13.973" fill="none" stroke="#000000" stroke-width="0.0210287"/>
</svg>
