<?xml version="1.0" encoding="UTF-8" standalone="no"?>
<svg
   xmlns:dc="http://purl.org/dc/elements/1.1/"
   xmlns:cc="http://creativecommons.org/ns#"
   xmlns:rdf="http://www.w3.org/1999/02/22-rdf-syntax-ns#"
   xmlns:svg="http://www.w3.org/2000/svg"
   xmlns="http://www.w3.org/2000/svg"
   xmlns:sodipodi="http://sodipodi.sourceforge.net/DTD/sodipodi-0.dtd"
   xmlns:inkscape="http://www.inkscape.org/namespaces/inkscape"
   height="600px"
   version="1.1"
   viewBox="13.0915295 13.0915295 82.557941 82.557941"
   width="600px"
   id="svg2"
   inkscape:version="0.91 r13725"
   sodipodi:docname="output.svg">
  <metadata
     id="metadata44">
    <rdf:RDF>
      <cc:Work
         rdf:about="">
        <dc:format>image/svg+xml</dc:format>
        <dc:type
           rdf:resource="http://purl.org/dc/dcmitype/StillImage" />
        <dc:title></dc:title>
      </cc:Work>
    </rdf:RDF>
  </metadata>
  <sodipodi:namedview
     pagecolor="#ffffff"
     bordercolor="#666666"
     borderopacity="1"
     objecttolerance="10"
     gridtolerance="10"
     guidetolerance="10"
     inkscape:pageopacity="0"
     inkscape:pageshadow="2"
     inkscape:window-width="640"
     inkscape:window-height="480"
     id="namedview42"
     showgrid="false"
     inkscape:zoom="0.39333333"
     inkscape:cx="300"
     inkscape:cy="300"
     inkscape:window-x="0"
     inkscape:window-y="0"
     inkscape:window-maximized="0"
     inkscape:current-layer="svg2" />
  <defs
     id="defs4" />
  <path
     d="M 49.197,56.695 L 56.851,56.695 L 56.851,56.78 L 49.197,56.78 L 49.197,56.695"
     fill="none"
     stroke="#000000"
     stroke-width="0.068741"
     id="path6" />
  <path
     d="M 46.079,56.411 L 56.851,56.411 L 56.851,56.496 L 46.079,56.496 L 46.079,56.411"
     fill="none"
     stroke="#000000"
     stroke-width="0.068741"
     id="path8" />
  <path
     d="M 42.961,56.128 L 56.851,56.128 L 56.851,56.213 L 42.961,56.213 L 42.961,56.128"
     fill="none"
     stroke="#000000"
     stroke-width="0.068741"
     id="path10" />
  <path
     d="M 39.843,55.844 L 56.851,55.844 L 56.851,55.929 L 39.843,55.929 L 39.843,55.844"
     fill="none"
     stroke="#000000"
     stroke-width="0.068741"
     id="path12" />
  <path
     d="M 52.315,55.561 L 56.851,55.561 L 56.851,55.646 L 52.315,55.646 L 52.315,55.561"
     fill="none"
     stroke="#000000"
     stroke-width="0.068741"
     id="path14" />
  <path
     d="M 20.0,78.678 L 50.048,78.678 L 50.048,80.464 L 20.0,80.464 L 20.0,78.678"
     fill="none"
     stroke="#000000"
     stroke-width="0.068741"
     id="path16" />
  <path
     d="M 49.197,56.652 L 50.048,56.652 L 50.048,79.0352 L 49.197,79.0352 L 49.197,56.652"
     fill="none"
     stroke="#000000"
     stroke-width="0.068741"
     id="path18" />
  <path
     d="M 20.0,71.478 L 46.929,71.478 L 46.929,73.264 L 20.0,73.264 L 20.0,71.478"
     fill="none"
     stroke="#000000"
     stroke-width="0.068741"
     id="path20" />
  <path
     d="M 46.079,56.369 L 46.929,56.369 L 46.929,71.8352 L 46.079,71.8352 L 46.079,56.369"
     fill="none"
     stroke="#000000"
     stroke-width="0.068741"
     id="path22" />
  <path
     d="M 20.0,64.278 L 43.811,64.278 L 43.811,66.063 L 20.0,66.063 L 20.0,64.278"
     fill="none"
     stroke="#000000"
     stroke-width="0.068741"
     id="path24" />
  <path
     d="M 42.961,56.085 L 43.811,56.085 L 43.811,64.635 L 42.961,64.635 L 42.961,56.085"
     fill="none"
     stroke="#000000"
     stroke-width="0.068741"
     id="path26" />
  <path
     d="M 20.0,53.477 L 40.693,53.477 L 40.693,55.263 L 20.0,55.263 L 20.0,53.477"
     fill="none"
     stroke="#000000"
     stroke-width="0.068741"
     id="path28" />
  <path
     d="M 39.843,54.9058 L 40.693,54.9058 L 40.693,55.972 L 39.843,55.972 L 39.843,54.9058"
     fill="none"
     stroke="#000000"
     stroke-width="0.068741"
     id="path30" />
  <path
     d="M 20.0,24.677 L 23.317,24.677 L 23.317,26.463 L 20.0,26.463 L 20.0,24.677"
     fill="none"
     stroke="#000000"
     stroke-width="0.068741"
     id="path32" />
  <path
     d="M 24.677,26.463 L 53.166,26.463 L 53.166,24.677 L 26.463,24.677 L 26.463,20.0 L 24.677,20.0 L 24.677,26.463"
     fill="none"
     stroke="#000000"
     stroke-width="0.068741"
     id="path34" />
  <path
     d="M 52.315,26.1058 L 53.166,26.1058 L 53.166,55.688 L 52.315,55.688 L 52.315,26.1058"
     fill="none"
     stroke="#000000"
     stroke-width="0.068741"
     id="path36" />
  <path
     d="M 24.677,85.878 L 26.463,85.878 L 26.463,88.741 L 24.677,88.741 L 24.677,85.878"
     fill="none"
     stroke="#000000"
     stroke-width="0.068741"
     id="path38" />
  <path
     d="M 20.0,20.0 L 20.0,88.741 L 88.741,88.741 L 88.741,20.0 L 20.0,20.0"
     fill="none"
     stroke="#000000"
     stroke-width="0.068741"
     id="path40" />
</svg>
