<?xml version="1.0" ?>
<svg baseProfile="full" height="467px" version="1.1" viewBox="-0.00118595 793.96891405 85.3813719 66.3361719" width="600px" xmlns="http://www.w3.org/2000/svg" xmlns:ev="http://www.w3.org/2001/xml-events" xmlns:xlink="http://www.w3.org/1999/xlink">
	<defs/>
	<path d="M 7.14355,799.52655 L 78.23545,799.52655 L 78.23545,854.74745 L 7.14355,854.74745 L 7.14355,799.52655" fill="none" stroke="#000000" stroke-width="0.0710919"/>
	<path d="M 71.32,810.695 L 73.871,810.695 L 73.871,806.445 L 75.004,806.445 L 75.004,803.895 L 70.754,803.895 L 70.754,802.758 L 68.203,802.758 L 68.203,807.012 L 67.066,807.012 L 67.066,809.563 L 71.32,809.563 L 71.32,810.695" fill="none" stroke="#000000" stroke-width="0.0710919"/>
	<path d="M 71.32,818.066 L 73.871,818.066 L 73.871,813.813 L 75.004,813.813 L 75.004,811.262 L 70.754,811.262 L 70.754,810.129 L 68.203,810.129 L 68.203,814.383 L 67.066,814.383 L 67.066,816.934 L 71.32,816.934 L 71.32,818.066" fill="none" stroke="#000000" stroke-width="0.0710919"/>
	<path d="M 63.949,810.695 L 66.5,810.695 L 66.5,806.445 L 67.637,806.445 L 67.637,803.895 L 63.383,803.895 L 63.383,802.758 L 60.832,802.758 L 60.832,807.012 L 59.699,807.012 L 59.699,809.563 L 63.949,809.563 L 63.949,810.695" fill="none" stroke="#000000" stroke-width="0.0710919"/>
	<path d="M 56.578,810.695 L 59.133,810.695 L 59.133,806.445 L 60.266,806.445 L 60.266,803.895 L 56.012,803.895 L 56.012,802.758 L 53.461,802.758 L 53.461,807.012 L 52.328,807.012 L 52.328,809.563 L 56.578,809.563 L 56.578,810.695" fill="none" stroke="#000000" stroke-width="0.0710919"/>
	<path d="M 56.578,818.066 L 59.133,818.066 L 59.133,813.813 L 60.266,813.813 L 60.266,811.262 L 56.012,811.262 L 56.012,810.129 L 53.461,810.129 L 53.461,814.383 L 52.328,814.383 L 52.328,816.934 L 56.578,816.934 L 56.578,818.066" fill="none" stroke="#000000" stroke-width="0.0710919"/>
	<path d="M 49.211,810.695 L 51.762,810.695 L 51.762,806.445 L 52.895,806.445 L 52.895,803.895 L 48.645,803.895 L 48.645,802.758 L 46.09,802.758 L 46.09,807.012 L 44.957,807.012 L 44.957,809.563 L 49.211,809.563 L 49.211,810.695" fill="none" stroke="#000000" stroke-width="0.0710919"/>
	<path d="M 41.84,810.695 L 44.391,810.695 L 44.391,806.445 L 45.523,806.445 L 45.523,803.895 L 41.273,803.895 L 41.273,802.758 L 38.723,802.758 L 38.723,807.012 L 37.586,807.012 L 37.586,809.563 L 41.84,809.563 L 41.84,810.695" fill="none" stroke="#000000" stroke-width="0.0710919"/>
	<path d="M 41.84,818.066 L 44.391,818.066 L 44.391,813.813 L 45.523,813.813 L 45.523,811.262 L 41.273,811.262 L 41.273,810.129 L 38.723,810.129 L 38.723,814.383 L 37.586,814.383 L 37.586,816.934 L 41.84,816.934 L 41.84,818.066" fill="none" stroke="#000000" stroke-width="0.0710919"/>
	<path d="M 34.469,810.695 L 37.02,810.695 L 37.02,806.445 L 38.156,806.445 L 38.156,803.895 L 33.902,803.895 L 33.902,802.758 L 31.352,802.758 L 31.352,807.012 L 30.219,807.012 L 30.219,809.563 L 34.469,809.563 L 34.469,810.695" fill="none" stroke="#000000" stroke-width="0.0710919"/>
	<path d="M 34.469,818.066 L 37.02,818.066 L 37.02,813.813 L 38.156,813.813 L 38.156,811.262 L 33.902,811.262 L 33.902,810.129 L 31.352,810.129 L 31.352,814.383 L 30.219,814.383 L 30.219,816.934 L 34.469,816.934 L 34.469,818.066" fill="none" stroke="#000000" stroke-width="0.0710919"/>
	<path d="M 27.098,810.695 L 29.652,810.695 L 29.652,806.445 L 30.785,806.445 L 30.785,803.895 L 26.531,803.895 L 26.531,802.758 L 23.98,802.758 L 23.98,807.012 L 22.848,807.012 L 22.848,809.563 L 27.098,809.563 L 27.098,810.695" fill="none" stroke="#000000" stroke-width="0.0710919"/>
	<path d="M 19.73,810.695 L 22.281,810.695 L 22.281,806.445 L 23.414,806.445 L 23.414,803.895 L 19.164,803.895 L 19.164,802.758 L 16.609,802.758 L 16.609,807.012 L 15.477,807.012 L 15.477,809.563 L 19.73,809.563 L 19.73,810.695" fill="none" stroke="#000000" stroke-width="0.0710919"/>
	<path d="M 19.73,818.066 L 22.281,818.066 L 22.281,813.813 L 23.414,813.813 L 23.414,811.262 L 19.164,811.262 L 19.164,810.129 L 16.609,810.129 L 16.609,814.383 L 15.477,814.383 L 15.477,816.934 L 19.73,816.934 L 19.73,818.066" fill="none" stroke="#000000" stroke-width="0.0710919"/>
	<path d="M 56.578,831.105 L 60.266,831.105 L 60.266,818.633 L 56.012,818.633 L 56.012,817.5 L 53.461,817.5 L 53.461,829.973 L 56.578,829.973 L 56.578,831.105" fill="none" stroke="#000000" stroke-width="0.0710919"/>
	<path d="M 19.73,831.105 L 23.414,831.105 L 23.414,818.633 L 19.164,818.633 L 19.164,817.5 L 16.609,817.5 L 16.609,829.973 L 19.73,829.973 L 19.73,831.105" fill="none" stroke="#000000" stroke-width="0.0710919"/>
	<path d="M 47.227,851.516 L 66.5,851.516 L 66.5,823.168 L 60.832,823.168 L 60.832,831.672 L 56.012,831.672 L 56.012,830.539 L 52.895,830.539 L 52.895,823.168 L 47.227,823.168 L 47.227,851.516" fill="none" stroke="#000000" stroke-width="0.0710919"/>
	<path d="M 10.375,851.516 L 29.652,851.516 L 29.652,823.168 L 23.98,823.168 L 23.98,831.672 L 19.164,831.672 L 19.164,830.539 L 16.043,830.539 L 16.043,823.168 L 10.375,823.168 L 10.375,851.516" fill="none" stroke="#000000" stroke-width="0.0710919"/>
</svg>
