<?xml version="1.0" encoding="UTF-8" standalone="no"?>
<svg
   xmlns:dc="http://purl.org/dc/elements/1.1/"
   xmlns:cc="http://creativecommons.org/ns#"
   xmlns:rdf="http://www.w3.org/1999/02/22-rdf-syntax-ns#"
   xmlns:svg="http://www.w3.org/2000/svg"
   xmlns="http://www.w3.org/2000/svg"
   xmlns:sodipodi="http://sodipodi.sourceforge.net/DTD/sodipodi-0.dtd"
   xmlns:inkscape="http://www.inkscape.org/namespaces/inkscape"
   height="537px"
   version="1.1"
   viewBox="-954.851634671 15691.6485846 11413.7034833 10201.343135"
   width="600px"
   id="svg2"
   inkscape:version="0.91 r13725"
   sodipodi:docname="0320.svg">
  <metadata
     id="metadata124">
    <rdf:RDF>
      <cc:Work
         rdf:about="">
        <dc:format>image/svg+xml</dc:format>
        <dc:type
           rdf:resource="http://purl.org/dc/dcmitype/StillImage" />
        <dc:title></dc:title>
      </cc:Work>
    </rdf:RDF>
  </metadata>
  <sodipodi:namedview
     pagecolor="#ffffff"
     bordercolor="#666666"
     borderopacity="1"
     objecttolerance="10"
     gridtolerance="10"
     guidetolerance="10"
     inkscape:pageopacity="0"
     inkscape:pageshadow="2"
     inkscape:window-width="640"
     inkscape:window-height="480"
     id="namedview122"
     showgrid="false"
     inkscape:zoom="0.43947858"
     inkscape:cx="300"
     inkscape:cy="268.5"
     inkscape:window-x="0"
     inkscape:window-y="0"
     inkscape:window-maximized="0"
     inkscape:current-layer="svg2" />
  <defs
     id="defs4" />
  <path
     d="M 0.2501139291,16545.7203042 L 999.749808238,16545.7203042 L 999.749808238,17545.3200936 L 0.2501139291,17545.3200936 L 0.2501139291,16545.7203042"
     fill="none"
     stroke="#000000"
     stroke-width="9.50349998607"
     id="path6" />
  <path
     d="M 250.24983766,17544.3200936 L 749.750099721,17544.3200936 L 749.750099721,21044.8202102 L 250.24983766,21044.8202102 L 250.24983766,17544.3200936"
     fill="none"
     stroke="#000000"
     stroke-width="9.50349998607"
     id="path8" />
  <path
     d="M 2250.25021248,18795.3199591 L 3249.75030697,18795.3199591 L 3249.75030697,22794.8198367 L 2250.25021248,22794.8198367 L 2250.25021248,18795.3199591"
     fill="none"
     stroke="#000000"
     stroke-width="9.50349998607"
     id="path10" />
  <path
     d="M 3249.75030697,18795.3199591 L 6249.25002752,18795.3199591 L 6249.25002752,18869.8202749 L 3249.75030697,18869.8202749 L 3249.75030697,18795.3199591"
     fill="none"
     stroke="#000000"
     stroke-width="9.50349998607"
     id="path12" />
  <path
     d="M 3249.75030697,18955.3198488 L 6249.25002752,18955.3198488 L 6249.25002752,19029.8196354 L 3249.75030697,19029.8196354 L 3249.75030697,18955.3198488"
     fill="none"
     stroke="#000000"
     stroke-width="9.50349998607"
     id="path14" />
  <path
     d="M 3249.75030697,19115.320003 L 6249.25002752,19115.320003 L 6249.25002752,19189.8203188 L 3249.75030697,19189.8203188 L 3249.75030697,19115.320003"
     fill="none"
     stroke="#000000"
     stroke-width="9.50349998607"
     id="path16" />
  <path
     d="M 3249.75030697,19275.3198927 L 6249.25002752,19275.3198927 L 6249.25002752,19349.8199438 L 3249.75030697,19349.8199438 L 3249.75030697,19275.3198927"
     fill="none"
     stroke="#000000"
     stroke-width="9.50349998607"
     id="path18" />
  <path
     d="M 3249.75030697,19435.3200469 L 6249.25002752,19435.3200469 L 6249.25002752,19509.8203626 L 3249.75030697,19509.8203626 L 3249.75030697,19435.3200469"
     fill="none"
     stroke="#000000"
     stroke-width="9.50349998607"
     id="path20" />
  <path
     d="M 3249.75030697,19595.319672 L 6249.25002752,19595.319672 L 6249.25002752,19669.8199877 L 3249.75030697,19669.8199877 L 3249.75030697,19595.319672"
     fill="none"
     stroke="#000000"
     stroke-width="9.50349998607"
     id="path22" />
  <path
     d="M 3249.75030697,19755.3200908 L 6249.25002752,19755.3200908 L 6249.25002752,19829.8198774 L 3249.75030697,19829.8198774 L 3249.75030697,19755.3200908"
     fill="none"
     stroke="#000000"
     stroke-width="9.50349998607"
     id="path24" />
  <path
     d="M 3249.75030697,19915.319663 L 6249.25002752,19915.319663 L 6249.25002752,19989.8200316 L 3249.75030697,19989.8200316 L 3249.75030697,19915.319663"
     fill="none"
     stroke="#000000"
     stroke-width="9.50349998607"
     id="path26" />
  <path
     d="M 3249.75030697,20075.3202405 L 6249.25002752,20075.3202405 L 6249.25002752,20149.82008 L 3249.75030697,20149.82008 L 3249.75030697,20075.3202405"
     fill="none"
     stroke="#000000"
     stroke-width="9.50349998607"
     id="path28" />
  <path
     d="M 3249.75030697,20235.3197598 L 6249.25002752,20235.3197598 L 6249.25002752,20309.8196257 L 3249.75030697,20309.8196257 L 3249.75030697,20235.3197598"
     fill="none"
     stroke="#000000"
     stroke-width="9.50349998607"
     id="path30" />
  <path
     d="M 3249.75030697,20395.3198346 L 6249.25002752,20395.3198346 L 6249.25002752,20469.8201768 L 3249.75030697,20469.8201768 L 3249.75030697,20395.3198346"
     fill="none"
     stroke="#000000"
     stroke-width="9.50349998607"
     id="path32" />
  <path
     d="M 749.750099721,20545.3199561 L 2250.25021248,20545.3199561 L 2250.25021248,21044.8202102 L 749.750099721,21044.8202102 L 749.750099721,20545.3199561"
     fill="none"
     stroke="#000000"
     stroke-width="9.50349998607"
     id="path34" />
  <path
     d="M 3249.75030697,20555.3193539 L 6249.25002752,20555.3193539 L 6249.25002752,20629.8197225 L 3249.75030697,20629.8197225 L 3249.75030697,20555.3193539"
     fill="none"
     stroke="#000000"
     stroke-width="9.50349998607"
     id="path36" />
  <path
     d="M 3249.75030697,20715.3199314 L 6249.25002752,20715.3199314 L 6249.25002752,20789.8197709 L 3249.75030697,20789.8197709 L 3249.75030697,20715.3199314"
     fill="none"
     stroke="#000000"
     stroke-width="9.50349998607"
     id="path38" />
  <path
     d="M 3249.75030697,20875.3194507 L 6249.25002752,20875.3194507 L 6249.25002752,20949.8193166 L 3249.75030697,20949.8193166 L 3249.75030697,20875.3194507"
     fill="none"
     stroke="#000000"
     stroke-width="9.50349998607"
     id="path40" />
  <path
     d="M 3249.75030697,21035.3200282 L 6249.25002752,21035.3200282 L 6249.25002752,21109.8198677 L 3249.75030697,21109.8198677 L 3249.75030697,21035.3200282"
     fill="none"
     stroke="#000000"
     stroke-width="9.50349998607"
     id="path42" />
  <path
     d="M 3249.75030697,21195.3200766 L 6249.25002752,21195.3200766 L 6249.25002752,21269.8199161 L 3249.75030697,21269.8199161 L 3249.75030697,21195.3200766"
     fill="none"
     stroke="#000000"
     stroke-width="9.50349998607"
     id="path44" />
  <path
     d="M 3249.75030697,21355.320125 L 6249.25002752,21355.320125 L 6249.25002752,21429.8204937 L 3249.75030697,21429.8204937 L 3249.75030697,21355.320125"
     fill="none"
     stroke="#000000"
     stroke-width="9.50349998607"
     id="path46" />
  <path
     d="M 3249.75030697,21515.3196707 L 6249.25002752,21515.3196707 L 6249.25002752,21589.8200129 L 3249.75030697,21589.8200129 L 3249.75030697,21515.3196707"
     fill="none"
     stroke="#000000"
     stroke-width="9.50349998607"
     id="path48" />
  <path
     d="M 3249.75030697,21675.3197191 L 6249.25002752,21675.3197191 L 6249.25002752,21749.8200878 L 3249.75030697,21749.8200878 L 3249.75030697,21675.3197191"
     fill="none"
     stroke="#000000"
     stroke-width="9.50349998607"
     id="path50" />
  <path
     d="M 3249.75030697,21835.3192383 L 6249.25002752,21835.3192383 L 6249.25002752,21909.819607 L 3249.75030697,21909.819607 L 3249.75030697,21835.3192383"
     fill="none"
     stroke="#000000"
     stroke-width="9.50349998607"
     id="path52" />
  <path
     d="M 3249.75030697,21995.3198159 L 6249.25002752,21995.3198159 L 6249.25002752,22069.8196554 L 3249.75030697,22069.8196554 L 3249.75030697,21995.3198159"
     fill="none"
     stroke="#000000"
     stroke-width="9.50349998607"
     id="path54" />
  <path
     d="M 3249.75030697,22155.3193616 L 6249.25002752,22155.3193616 L 6249.25002752,22229.8192011 L 3249.75030697,22229.8192011 L 3249.75030697,22155.3193616"
     fill="none"
     stroke="#000000"
     stroke-width="9.50349998607"
     id="path56" />
  <path
     d="M 3249.75030697,22315.3204339 L 6249.25002752,22315.3204339 L 6249.25002752,22389.8202787 L 3249.75030697,22389.8202787 L 3249.75030697,22315.3204339"
     fill="none"
     stroke="#000000"
     stroke-width="9.50349998607"
     id="path58" />
  <path
     d="M 3249.75030697,22475.3199677 L 6249.25002752,22475.3199677 L 6249.25002752,22549.8198112 L 3249.75030697,22549.8198112 L 3249.75030697,22475.3199677"
     fill="none"
     stroke="#000000"
     stroke-width="9.50349998607"
     id="path60" />
  <path
     d="M 3249.75030697,22635.3200175 L 6249.25002752,22635.3200175 L 6249.25002752,22709.8198622 L 3249.75030697,22709.8198622 L 3249.75030697,22635.3200175"
     fill="none"
     stroke="#000000"
     stroke-width="9.50349998607"
     id="path62" />
  <path
     d="M 6254.2499,18789.8204 L 7253.7499,18789.8204 L 7253.7499,22789.32032 L 6254.2499,22789.32032 L 6254.2499,18789.8204"
     fill="none"
     stroke="#000000"
     stroke-width="9.50349998607"
     id="path64" />
  <path
     d="M 3254.75,18874.8205 L 6254.2499,18874.8205 L 6254.2499,18949.3201 L 3254.75,18949.3201 L 3254.75,18874.8205"
     fill="none"
     stroke="#000000"
     stroke-width="9.50349998607"
     id="path66" />
  <path
     d="M 3254.75,19034.8203 L 6254.2499,19034.8203 L 6254.2499,19109.3201 L 3254.75,19109.3201 L 3254.75,19034.8203"
     fill="none"
     stroke="#000000"
     stroke-width="9.50349998607"
     id="path68" />
  <path
     d="M 3254.75,19194.82 L 6254.2499,19194.82 L 6254.2499,19269.3198 L 3254.75,19269.3198 L 3254.75,19194.82"
     fill="none"
     stroke="#000000"
     stroke-width="9.50349998607"
     id="path70" />
  <path
     d="M 3254.75,19354.8209 L 6254.2499,19354.8209 L 6254.2499,19429.321 L 3254.75,19429.321 L 3254.75,19354.8209"
     fill="none"
     stroke="#000000"
     stroke-width="9.50349998607"
     id="path72" />
  <path
     d="M 3254.75,19514.8205 L 6254.2499,19514.8205 L 6254.2499,19589.3203 L 3254.75,19589.3203 L 3254.75,19514.8205"
     fill="none"
     stroke="#000000"
     stroke-width="9.50349998607"
     id="path74" />
  <path
     d="M 3254.75,19674.8206 L 6254.2499,19674.8206 L 6254.2499,19749.321 L 3254.75,19749.321 L 3254.75,19674.8206"
     fill="none"
     stroke="#000000"
     stroke-width="9.50349998607"
     id="path76" />
  <path
     d="M 3254.75,19834.8201 L 6254.2499,19834.8201 L 6254.2499,19909.3206 L 3254.75,19909.3206 L 3254.75,19834.8201"
     fill="none"
     stroke="#000000"
     stroke-width="9.50349998607"
     id="path78" />
  <path
     d="M 3254.75,19994.8202 L 6254.2499,19994.8202 L 6254.2499,20069.3205 L 3254.75,20069.3205 L 3254.75,19994.8202"
     fill="none"
     stroke="#000000"
     stroke-width="9.50349998607"
     id="path80" />
  <path
     d="M 3254.75,20154.8199 L 6254.2499,20154.8199 L 6254.2499,20229.3202 L 3254.75,20229.3202 L 3254.75,20154.8199"
     fill="none"
     stroke="#000000"
     stroke-width="9.50349998607"
     id="path82" />
  <path
     d="M 3254.75,20314.8203 L 6254.2499,20314.8203 L 6254.2499,20389.3201 L 3254.75,20389.3201 L 3254.75,20314.8203"
     fill="none"
     stroke="#000000"
     stroke-width="9.50349998607"
     id="path84" />
  <path
     d="M 3254.75,20474.8204 L 6254.2499,20474.8204 L 6254.2499,20549.3202 L 3254.75,20549.3202 L 3254.75,20474.8204"
     fill="none"
     stroke="#000000"
     stroke-width="9.50349998607"
     id="path86" />
  <path
     d="M 7253.7499,20539.8201 L 8754.2501,20539.8201 L 8754.2501,21039.3203 L 7253.7499,21039.3203 L 7253.7499,20539.8201"
     fill="none"
     stroke="#000000"
     stroke-width="9.50349998607"
     id="path88" />
  <path
     d="M 8754.2501,20539.8201 L 9253.7504,20539.8201 L 9253.7504,24040.3202 L 8754.2501,24040.3202 L 8754.2501,20539.8201"
     fill="none"
     stroke="#000000"
     stroke-width="9.50349998607"
     id="path90" />
  <path
     d="M 3254.75,20634.8208 L 6254.2499,20634.8208 L 6254.2499,20709.3209 L 3254.75,20709.3209 L 3254.75,20634.8208"
     fill="none"
     stroke="#000000"
     stroke-width="9.50349998607"
     id="path92" />
  <path
     d="M 3254.75,20794.8205 L 6254.2499,20794.8205 L 6254.2499,20869.3203 L 3254.75,20869.3203 L 3254.75,20794.8205"
     fill="none"
     stroke="#000000"
     stroke-width="9.50349998607"
     id="path94" />
  <path
     d="M 3254.75,20954.8206 L 6254.2499,20954.8206 L 6254.2499,21029.3209 L 3254.75,21029.3209 L 3254.75,20954.8206"
     fill="none"
     stroke="#000000"
     stroke-width="9.50349998607"
     id="path96" />
  <path
     d="M 3254.75,21114.82 L 6254.2499,21114.82 L 6254.2499,21189.3203 L 3254.75,21189.3203 L 3254.75,21114.82"
     fill="none"
     stroke="#000000"
     stroke-width="9.50349998607"
     id="path98" />
  <path
     d="M 3254.75,21274.8207 L 6254.2499,21274.8207 L 6254.2499,21349.3205 L 3254.75,21349.3205 L 3254.75,21274.8207"
     fill="none"
     stroke="#000000"
     stroke-width="9.50349998607"
     id="path100" />
  <path
     d="M 3254.75,21434.8203 L 6254.2499,21434.8203 L 6254.2499,21509.32012 L 3254.75,21509.32012 L 3254.75,21434.8203"
     fill="none"
     stroke="#000000"
     stroke-width="9.50349998607"
     id="path102" />
  <path
     d="M 3254.75,21594.82022 L 6254.2499,21594.82022 L 6254.2499,21669.32052 L 3254.75,21669.32052 L 3254.75,21594.82022"
     fill="none"
     stroke="#000000"
     stroke-width="9.50349998607"
     id="path104" />
  <path
     d="M 3254.75,21754.82042 L 6254.2499,21754.82042 L 6254.2499,21829.32012 L 3254.75,21829.32012 L 3254.75,21754.82042"
     fill="none"
     stroke="#000000"
     stroke-width="9.50349998607"
     id="path106" />
  <path
     d="M 3254.75,21914.82022 L 6254.2499,21914.82022 L 6254.2499,21989.32062 L 3254.75,21989.32062 L 3254.75,21914.82022"
     fill="none"
     stroke="#000000"
     stroke-width="9.50349998607"
     id="path108" />
  <path
     d="M 3254.75,22074.81992 L 6254.2499,22074.81992 L 6254.2499,22149.32022 L 3254.75,22149.32022 L 3254.75,22074.81992"
     fill="none"
     stroke="#000000"
     stroke-width="9.50349998607"
     id="path110" />
  <path
     d="M 3254.75,22234.82032 L 6254.2499,22234.82032 L 6254.2499,22309.32032 L 3254.75,22309.32032 L 3254.75,22234.82032"
     fill="none"
     stroke="#000000"
     stroke-width="9.50349998607"
     id="path112" />
  <path
     d="M 3254.75,22394.81992 L 6254.2499,22394.81992 L 6254.2499,22469.320323 L 3254.75,22469.320323 L 3254.75,22394.81992"
     fill="none"
     stroke="#000000"
     stroke-width="9.50349998607"
     id="path114" />
  <path
     d="M 3254.75,22554.820623 L 6254.2499,22554.820623 L 6254.2499,22629.32042 L 3254.75,22629.32042 L 3254.75,22554.820623"
     fill="none"
     stroke="#000000"
     stroke-width="9.50349998607"
     id="path116" />
  <path
     d="M 3254.75,22714.82002 L 6254.2499,22714.82002 L 6254.2499,22789.32032 L 3254.75,22789.32032 L 3254.75,22714.82002"
     fill="none"
     stroke="#000000"
     stroke-width="9.50349998607"
     id="path118" />
  <path
     d="M 8504.2504,24039.3202 L 9503.7501,24039.3202 L 9503.7501,25038.92 L 8504.2504,25038.92 L 8504.2504,24039.3202"
     fill="none"
     stroke="#000000"
     stroke-width="9.50349998607"
     id="path120" />
</svg>
