<?xml version="1.0" ?>
<svg baseProfile="full" height="174px" version="1.1" viewBox="6.9554766 846.1865766 25.0850468 7.2638468" width="600px" xmlns="http://www.w3.org/2000/svg" xmlns:ev="http://www.w3.org/2001/xml-events" xmlns:xlink="http://www.w3.org/1999/xlink">
	<defs/>
	<path d="M 9.0546,846.8006 L 29.9414,846.8006 L 29.9414,852.8364 L 9.0546,852.8364 L 9.0546,846.8006" fill="none" stroke="#000000" stroke-width="0.0208868"/>
	<path d="M 15.719,851.887 L 17.168,851.887 L 17.168,847.75 L 15.719,847.75 L 15.719,849.102 L 12.859,849.102 L 12.859,848.391 L 10.004,848.391 L 10.004,851.246 L 12.859,851.246 L 12.859,850.531 L 15.719,850.531 L 15.719,851.887" fill="none" stroke="#000000" stroke-width="0.0208868"/>
	<path d="M 16.1537,847.906 L 21.82,847.906 L 21.82,848.117 L 16.1537,848.117 L 16.1537,847.906" fill="none" stroke="#000000" stroke-width="0.0208868"/>
	<path d="M 16.1537,848.305 L 21.82,848.305 L 21.82,848.512 L 16.1537,848.512 L 16.1537,848.305" fill="none" stroke="#000000" stroke-width="0.0208868"/>
	<path d="M 16.1537,848.703 L 21.82,848.703 L 21.82,848.91 L 16.1537,848.91 L 16.1537,848.703" fill="none" stroke="#000000" stroke-width="0.0208868"/>
	<path d="M 16.1537,849.098 L 21.82,849.098 L 21.82,849.305 L 16.1537,849.305 L 16.1537,849.098" fill="none" stroke="#000000" stroke-width="0.0208868"/>
	<path d="M 15.7352,849.496 L 21.82,849.496 L 21.82,849.703 L 15.7352,849.703 L 15.7352,849.496" fill="none" stroke="#000000" stroke-width="0.0208868"/>
	<path d="M 15.7352,849.891 L 21.82,849.891 L 21.82,850.102 L 15.7352,850.102 L 15.7352,849.891" fill="none" stroke="#000000" stroke-width="0.0208868"/>
	<path d="M 15.7352,850.289 L 21.82,850.289 L 21.82,850.496 L 15.7352,850.496 L 15.7352,850.289" fill="none" stroke="#000000" stroke-width="0.0208868"/>
	<path d="M 16.1537,850.688 L 21.82,850.688 L 21.82,850.895 L 16.1537,850.895 L 16.1537,850.688" fill="none" stroke="#000000" stroke-width="0.0208868"/>
	<path d="M 16.1537,851.082 L 21.82,851.082 L 21.82,851.289 L 16.1537,851.289 L 16.1537,851.082" fill="none" stroke="#000000" stroke-width="0.0208868"/>
	<path d="M 16.1537,851.48 L 21.82,851.48 L 21.82,851.688 L 16.1537,851.688 L 16.1537,851.48" fill="none" stroke="#000000" stroke-width="0.0208868"/>
	<path d="M 21.828,851.887 L 23.277,851.887 L 23.277,850.531 L 26.137,850.531 L 26.137,851.246 L 28.992,851.246 L 28.992,848.391 L 26.137,848.391 L 26.137,849.102 L 23.277,849.102 L 23.277,847.75 L 21.828,847.75 L 21.828,851.887" fill="none" stroke="#000000" stroke-width="0.0208868"/>
	<path d="M 17.176,848.105 L 22.8423,848.105 L 22.8423,848.313 L 17.176,848.313 L 17.176,848.105" fill="none" stroke="#000000" stroke-width="0.0208868"/>
	<path d="M 17.176,848.504 L 22.8423,848.504 L 22.8423,848.711 L 17.176,848.711 L 17.176,848.504" fill="none" stroke="#000000" stroke-width="0.0208868"/>
	<path d="M 17.176,848.898 L 22.8423,848.898 L 22.8423,849.109 L 17.176,849.109 L 17.176,848.898" fill="none" stroke="#000000" stroke-width="0.0208868"/>
	<path d="M 17.176,849.297 L 23.2608,849.297 L 23.2608,849.504 L 17.176,849.504 L 17.176,849.297" fill="none" stroke="#000000" stroke-width="0.0208868"/>
	<path d="M 17.176,849.695 L 23.2608,849.695 L 23.2608,849.902 L 17.176,849.902 L 17.176,849.695" fill="none" stroke="#000000" stroke-width="0.0208868"/>
	<path d="M 17.176,850.09 L 23.2608,850.09 L 23.2608,850.297 L 17.176,850.297 L 17.176,850.09" fill="none" stroke="#000000" stroke-width="0.0208868"/>
	<path d="M 17.176,850.488 L 22.8423,850.488 L 22.8423,850.695 L 17.176,850.695 L 17.176,850.488" fill="none" stroke="#000000" stroke-width="0.0208868"/>
	<path d="M 17.176,850.883 L 22.8423,850.883 L 22.8423,851.094 L 17.176,851.094 L 17.176,850.883" fill="none" stroke="#000000" stroke-width="0.0208868"/>
	<path d="M 17.176,851.281 L 22.8423,851.281 L 22.8423,851.488 L 17.176,851.488 L 17.176,851.281" fill="none" stroke="#000000" stroke-width="0.0208868"/>
	<path d="M 17.176,851.68 L 22.8423,851.68 L 22.8423,851.887 L 17.176,851.887 L 17.176,851.68" fill="none" stroke="#000000" stroke-width="0.0208868"/>
</svg>
