<?xml version="1.0" ?>
<svg baseProfile="full" height="170px" version="1.1" viewBox="6.93540785 8.44440785 25.2501843 7.1421843" width="600px" xmlns="http://www.w3.org/2000/svg" xmlns:ev="http://www.w3.org/2001/xml-events" xmlns:xlink="http://www.w3.org/1999/xlink">
	<defs/>
	<path d="M 9.04835,9.04835 L 30.07265,9.04835 L 30.07265,14.98265 L 9.04835,14.98265 L 9.04835,9.04835" fill="none" stroke="#000000" stroke-width="0.0210243"/>
	<path d="M 15.809,14.027 L 17.281,14.027 L 17.281,10.004 L 15.809,10.004 L 15.809,11.289 L 12.906,11.289 L 12.906,10.563 L 10.004,10.563 L 10.004,13.465 L 12.906,13.465 L 12.906,12.738 L 15.809,12.738 L 15.809,14.027" fill="none" stroke="#000000" stroke-width="0.0210243"/>
	<path d="M 16.2506,10.035 L 21.828,10.035 L 21.828,10.258 L 16.2506,10.258 L 16.2506,10.035" fill="none" stroke="#000000" stroke-width="0.0210243"/>
	<path d="M 16.2506,10.43 L 21.828,10.43 L 21.828,10.652 L 16.2506,10.652 L 16.2506,10.43" fill="none" stroke="#000000" stroke-width="0.0210243"/>
	<path d="M 16.2506,10.828 L 21.828,10.828 L 21.828,11.051 L 16.2506,11.051 L 16.2506,10.828" fill="none" stroke="#000000" stroke-width="0.0210243"/>
	<path d="M 16.2506,11.223 L 21.828,11.223 L 21.828,11.445 L 16.2506,11.445 L 16.2506,11.223" fill="none" stroke="#000000" stroke-width="0.0210243"/>
	<path d="M 15.8256,11.621 L 21.828,11.621 L 21.828,11.844 L 15.8256,11.844 L 15.8256,11.621" fill="none" stroke="#000000" stroke-width="0.0210243"/>
	<path d="M 15.8256,12.02 L 21.828,12.02 L 21.828,12.242 L 15.8256,12.242 L 15.8256,12.02" fill="none" stroke="#000000" stroke-width="0.0210243"/>
	<path d="M 15.8256,12.414 L 21.828,12.414 L 21.828,12.637 L 15.8256,12.637 L 15.8256,12.414" fill="none" stroke="#000000" stroke-width="0.0210243"/>
	<path d="M 16.2506,12.813 L 21.828,12.813 L 21.828,13.035 L 16.2506,13.035 L 16.2506,12.813" fill="none" stroke="#000000" stroke-width="0.0210243"/>
	<path d="M 16.2506,13.207 L 21.828,13.207 L 21.828,13.43 L 16.2506,13.43 L 16.2506,13.207" fill="none" stroke="#000000" stroke-width="0.0210243"/>
	<path d="M 16.2506,13.605 L 21.828,13.605 L 21.828,13.828 L 16.2506,13.828 L 16.2506,13.605" fill="none" stroke="#000000" stroke-width="0.0210243"/>
	<path d="M 21.84,14.027 L 23.309,14.027 L 23.309,12.742 L 26.215,12.742 L 26.215,13.469 L 29.117,13.469 L 29.117,10.563 L 26.215,10.563 L 26.215,11.289 L 23.309,11.289 L 23.309,10.004 L 21.84,10.004 L 21.84,14.027" fill="none" stroke="#000000" stroke-width="0.0210243"/>
	<path d="M 17.293,10.23 L 22.8683,10.23 L 22.8683,10.453 L 17.293,10.453 L 17.293,10.23" fill="none" stroke="#000000" stroke-width="0.0210243"/>
	<path d="M 17.293,10.629 L 22.8683,10.629 L 22.8683,10.852 L 17.293,10.852 L 17.293,10.629" fill="none" stroke="#000000" stroke-width="0.0210243"/>
	<path d="M 17.293,11.027 L 22.8683,11.027 L 22.8683,11.25 L 17.293,11.25 L 17.293,11.027" fill="none" stroke="#000000" stroke-width="0.0210243"/>
	<path d="M 17.293,11.422 L 23.2954,11.422 L 23.2954,11.645 L 17.293,11.645 L 17.293,11.422" fill="none" stroke="#000000" stroke-width="0.0210243"/>
	<path d="M 17.293,11.82 L 23.2954,11.82 L 23.2954,12.043 L 17.293,12.043 L 17.293,11.82" fill="none" stroke="#000000" stroke-width="0.0210243"/>
	<path d="M 17.293,12.215 L 23.2954,12.215 L 23.2954,12.441 L 17.293,12.441 L 17.293,12.215" fill="none" stroke="#000000" stroke-width="0.0210243"/>
	<path d="M 17.293,12.613 L 22.8683,12.613 L 22.8683,12.836 L 17.293,12.836 L 17.293,12.613" fill="none" stroke="#000000" stroke-width="0.0210243"/>
	<path d="M 17.293,13.012 L 22.8683,13.012 L 22.8683,13.23 L 17.293,13.23 L 17.293,13.012" fill="none" stroke="#000000" stroke-width="0.0210243"/>
	<path d="M 17.293,13.406 L 22.8683,13.406 L 22.8683,13.629 L 17.293,13.629 L 17.293,13.406" fill="none" stroke="#000000" stroke-width="0.0210243"/>
	<path d="M 17.293,13.805 L 22.8683,13.805 L 22.8683,14.027 L 17.293,14.027 L 17.293,13.805" fill="none" stroke="#000000" stroke-width="0.0210243"/>
</svg>
