<?xml version="1.0" encoding="UTF-8" standalone="no"?>
<svg
   xmlns:dc="http://purl.org/dc/elements/1.1/"
   xmlns:cc="http://creativecommons.org/ns#"
   xmlns:rdf="http://www.w3.org/1999/02/22-rdf-syntax-ns#"
   xmlns:svg="http://www.w3.org/2000/svg"
   xmlns="http://www.w3.org/2000/svg"
   xmlns:sodipodi="http://sodipodi.sourceforge.net/DTD/sodipodi-0.dtd"
   xmlns:inkscape="http://www.inkscape.org/namespaces/inkscape"
   height="543px"
   version="1.1"
   viewBox="-1505.536925 37637.033075 12555.07385 11342.71385"
   width="600px"
   id="svg2"
   inkscape:version="0.91 r13725"
   sodipodi:docname="output.svg">
  <metadata
     id="metadata118">
    <rdf:RDF>
      <cc:Work
         rdf:about="">
        <dc:format>image/svg+xml</dc:format>
        <dc:type
           rdf:resource="http://purl.org/dc/dcmitype/StillImage" />
        <dc:title></dc:title>
      </cc:Work>
    </rdf:RDF>
  </metadata>
  <sodipodi:namedview
     pagecolor="#ffffff"
     bordercolor="#666666"
     borderopacity="1"
     objecttolerance="10"
     gridtolerance="10"
     guidetolerance="10"
     inkscape:pageopacity="0"
     inkscape:pageshadow="2"
     inkscape:window-width="640"
     inkscape:window-height="480"
     id="namedview116"
     showgrid="false"
     inkscape:zoom="0.43462247"
     inkscape:cx="300"
     inkscape:cy="271.5"
     inkscape:window-x="0"
     inkscape:window-y="0"
     inkscape:window-maximized="0"
     inkscape:current-layer="svg2" />
  <defs
     id="defs4" />
  <path
     d="M 2270.25,45310.89 L 3269.75,45310.89 L 3269.75,41311.39 L 2270.25,41311.39 L 2270.25,43061.39 L 270.25,43061.39 L 270.25,43560.89 L 2270.25,43560.89 L 2270.25,45310.89"
     fill="none"
     stroke="#000000"
     stroke-width="10.45385"
     id="path6" />
  <path
     d="M 3069.85,41311.39 L 6269.25,41311.39 L 6269.25,41385.89 L 3069.85,41385.89 L 3069.85,41311.39"
     fill="none"
     stroke="#000000"
     stroke-width="10.45385"
     id="path8" />
  <path
     d="M 3069.85,41471.39 L 6269.25,41471.39 L 6269.25,41545.89 L 3069.85,41545.89 L 3069.85,41471.39"
     fill="none"
     stroke="#000000"
     stroke-width="10.45385"
     id="path10" />
  <path
     d="M 3069.85,41631.39 L 6269.25,41631.39 L 6269.25,41705.89 L 3069.85,41705.89 L 3069.85,41631.39"
     fill="none"
     stroke="#000000"
     stroke-width="10.45385"
     id="path12" />
  <path
     d="M 3069.85,41791.39 L 6269.25,41791.39 L 6269.25,41865.89 L 3069.85,41865.89 L 3069.85,41791.39"
     fill="none"
     stroke="#000000"
     stroke-width="10.45385"
     id="path14" />
  <path
     d="M 3069.85,41951.39 L 6269.25,41951.39 L 6269.25,42025.89 L 3069.85,42025.89 L 3069.85,41951.39"
     fill="none"
     stroke="#000000"
     stroke-width="10.45385"
     id="path16" />
  <path
     d="M 3069.85,42111.39 L 6269.25,42111.39 L 6269.25,42185.89 L 3069.85,42185.89 L 3069.85,42111.39"
     fill="none"
     stroke="#000000"
     stroke-width="10.45385"
     id="path18" />
  <path
     d="M 3069.85,42271.39 L 6269.25,42271.39 L 6269.25,42345.89 L 3069.85,42345.89 L 3069.85,42271.39"
     fill="none"
     stroke="#000000"
     stroke-width="10.45385"
     id="path20" />
  <path
     d="M 3069.85,42431.39 L 6269.25,42431.39 L 6269.25,42505.89 L 3069.85,42505.89 L 3069.85,42431.39"
     fill="none"
     stroke="#000000"
     stroke-width="10.45385"
     id="path22" />
  <path
     d="M 3069.85,42591.39 L 6269.25,42591.39 L 6269.25,42665.89 L 3069.85,42665.89 L 3069.85,42591.39"
     fill="none"
     stroke="#000000"
     stroke-width="10.45385"
     id="path24" />
  <path
     d="M 3069.85,42751.39 L 6269.25,42751.39 L 6269.25,42825.89 L 3069.85,42825.89 L 3069.85,42751.39"
     fill="none"
     stroke="#000000"
     stroke-width="10.45385"
     id="path26" />
  <path
     d="M 3069.85,42911.39 L 6269.25,42911.39 L 6269.25,42985.89 L 3069.85,42985.89 L 3069.85,42911.39"
     fill="none"
     stroke="#000000"
     stroke-width="10.45385"
     id="path28" />
  <path
     d="M 2669.85,43071.389 L 6269.25,43071.389 L 6269.25,43145.89 L 2669.85,43145.89 L 2669.85,43071.389"
     fill="none"
     stroke="#000000"
     stroke-width="10.45385"
     id="path30" />
  <path
     d="M 2669.85,43231.39 L 6269.25,43231.39 L 6269.25,43305.89 L 2669.85,43305.89 L 2669.85,43231.39"
     fill="none"
     stroke="#000000"
     stroke-width="10.45385"
     id="path32" />
  <path
     d="M 2669.85,43391.389 L 6269.25,43391.389 L 6269.25,43465.889 L 2669.85,43465.889 L 2669.85,43391.389"
     fill="none"
     stroke="#000000"
     stroke-width="10.45385"
     id="path34" />
  <path
     d="M 3069.85,43551.39 L 6269.25,43551.39 L 6269.25,43625.89 L 3069.85,43625.89 L 3069.85,43551.39"
     fill="none"
     stroke="#000000"
     stroke-width="10.45385"
     id="path36" />
  <path
     d="M 3069.85,43711.39 L 6269.25,43711.39 L 6269.25,43785.89 L 3069.85,43785.89 L 3069.85,43711.39"
     fill="none"
     stroke="#000000"
     stroke-width="10.45385"
     id="path38" />
  <path
     d="M 3069.85,43871.39 L 6269.25,43871.39 L 6269.25,43945.89 L 3069.85,43945.89 L 3069.85,43871.39"
     fill="none"
     stroke="#000000"
     stroke-width="10.45385"
     id="path40" />
  <path
     d="M 3069.85,44031.39 L 6269.25,44031.39 L 6269.25,44105.89 L 3069.85,44105.89 L 3069.85,44031.39"
     fill="none"
     stroke="#000000"
     stroke-width="10.45385"
     id="path42" />
  <path
     d="M 3069.85,44191.39 L 6269.25,44191.39 L 6269.25,44265.89 L 3069.85,44265.89 L 3069.85,44191.39"
     fill="none"
     stroke="#000000"
     stroke-width="10.45385"
     id="path44" />
  <path
     d="M 3069.85,44351.389 L 6269.25,44351.389 L 6269.25,44425.89 L 3069.85,44425.89 L 3069.85,44351.389"
     fill="none"
     stroke="#000000"
     stroke-width="10.45385"
     id="path46" />
  <path
     d="M 3069.85,44511.39 L 6269.25,44511.39 L 6269.25,44585.89 L 3069.85,44585.89 L 3069.85,44511.39"
     fill="none"
     stroke="#000000"
     stroke-width="10.45385"
     id="path48" />
  <path
     d="M 3069.85,44671.389 L 6269.25,44671.389 L 6269.25,44745.889 L 3069.85,44745.889 L 3069.85,44671.389"
     fill="none"
     stroke="#000000"
     stroke-width="10.45385"
     id="path50" />
  <path
     d="M 3069.85,44831.39 L 6269.25,44831.39 L 6269.25,44905.89 L 3069.85,44905.89 L 3069.85,44831.39"
     fill="none"
     stroke="#000000"
     stroke-width="10.45385"
     id="path52" />
  <path
     d="M 3069.85,44991.39 L 6269.25,44991.39 L 6269.25,45065.89 L 3069.85,45065.89 L 3069.85,44991.39"
     fill="none"
     stroke="#000000"
     stroke-width="10.45385"
     id="path54" />
  <path
     d="M 3069.85,45151.39 L 6269.25,45151.39 L 6269.25,45225.89 L 3069.85,45225.89 L 3069.85,45151.39"
     fill="none"
     stroke="#000000"
     stroke-width="10.45385"
     id="path56" />
  <path
     d="M 270.25,43161.29 L 769.75,43161.29 L 769.75,40061.39 L 1019.75,40061.39 L 1019.75,39061.79 L 20.25,39061.79 L 20.25,40061.39 L 270.25,40061.39 L 270.25,43161.29"
     fill="none"
     stroke="#000000"
     stroke-width="10.45385"
     id="path58" />
  <path
     d="M 6274.25,45305.39 L 7273.75,45305.39 L 7273.75,43555.39 L 9273.75,43555.39 L 9273.75,43055.89 L 7273.75,43055.89 L 7273.75,41305.89 L 6274.25,41305.89 L 6274.25,45305.39"
     fill="none"
     stroke="#000000"
     stroke-width="10.45385"
     id="path60" />
  <path
     d="M 3274.75,41390.891 L 6474.15,41390.891 L 6474.15,41465.39 L 3274.75,41465.39 L 3274.75,41390.891"
     fill="none"
     stroke="#000000"
     stroke-width="10.45385"
     id="path62" />
  <path
     d="M 3274.75,41550.89 L 6474.15,41550.89 L 6474.15,41625.39 L 3274.75,41625.39 L 3274.75,41550.89"
     fill="none"
     stroke="#000000"
     stroke-width="10.45385"
     id="path64" />
  <path
     d="M 3274.75,41710.89 L 6474.15,41710.89 L 6474.15,41785.39 L 3274.75,41785.39 L 3274.75,41710.89"
     fill="none"
     stroke="#000000"
     stroke-width="10.45385"
     id="path66" />
  <path
     d="M 3274.75,41870.891 L 6474.15,41870.891 L 6474.15,41945.391 L 3274.75,41945.391 L 3274.75,41870.891"
     fill="none"
     stroke="#000000"
     stroke-width="10.45385"
     id="path68" />
  <path
     d="M 3274.75,42030.891 L 6474.15,42030.891 L 6474.15,42105.39 L 3274.75,42105.39 L 3274.75,42030.891"
     fill="none"
     stroke="#000000"
     stroke-width="10.45385"
     id="path70" />
  <path
     d="M 3274.75,42190.891 L 6474.15,42190.891 L 6474.15,42265.391 L 3274.75,42265.391 L 3274.75,42190.891"
     fill="none"
     stroke="#000000"
     stroke-width="10.45385"
     id="path72" />
  <path
     d="M 3274.75,42350.89 L 6474.15,42350.89 L 6474.15,42425.391 L 3274.75,42425.391 L 3274.75,42350.89"
     fill="none"
     stroke="#000000"
     stroke-width="10.45385"
     id="path74" />
  <path
     d="M 3274.75,42510.89 L 6474.15,42510.89 L 6474.15,42585.391 L 3274.75,42585.391 L 3274.75,42510.89"
     fill="none"
     stroke="#000000"
     stroke-width="10.45385"
     id="path76" />
  <path
     d="M 3274.75,42670.89 L 6474.15,42670.89 L 6474.15,42745.39 L 3274.75,42745.39 L 3274.75,42670.89"
     fill="none"
     stroke="#000000"
     stroke-width="10.45385"
     id="path78" />
  <path
     d="M 3274.75,42830.89 L 6474.15,42830.89 L 6474.15,42905.39 L 3274.75,42905.39 L 3274.75,42830.89"
     fill="none"
     stroke="#000000"
     stroke-width="10.45385"
     id="path80" />
  <path
     d="M 3274.75,42990.89 L 6474.15,42990.89 L 6474.15,43065.39 L 3274.75,43065.39 L 3274.75,42990.89"
     fill="none"
     stroke="#000000"
     stroke-width="10.45385"
     id="path82" />
  <path
     d="M 3274.75,43150.891 L 6874.15,43150.891 L 6874.15,43225.391 L 3274.75,43225.391 L 3274.75,43150.891"
     fill="none"
     stroke="#000000"
     stroke-width="10.45385"
     id="path84" />
  <path
     d="M 3274.75,43310.891 L 6874.15,43310.891 L 6874.15,43385.39 L 3274.75,43385.39 L 3274.75,43310.891"
     fill="none"
     stroke="#000000"
     stroke-width="10.45385"
     id="path86" />
  <path
     d="M 3274.75,43470.891 L 6874.15,43470.891 L 6874.15,43545.391 L 3274.75,43545.391 L 3274.75,43470.891"
     fill="none"
     stroke="#000000"
     stroke-width="10.45385"
     id="path88" />
  <path
     d="M 3274.75,43630.89 L 6474.15,43630.89 L 6474.15,43705.39 L 3274.75,43705.39 L 3274.75,43630.89"
     fill="none"
     stroke="#000000"
     stroke-width="10.45385"
     id="path90" />
  <path
     d="M 3274.75,43790.891 L 6474.15,43790.891 L 6474.15,43865.391 L 3274.75,43865.391 L 3274.75,43790.891"
     fill="none"
     stroke="#000000"
     stroke-width="10.45385"
     id="path92" />
  <path
     d="M 3274.75,43950.89 L 6474.15,43950.89 L 6474.15,44025.39 L 3274.75,44025.39 L 3274.75,43950.89"
     fill="none"
     stroke="#000000"
     stroke-width="10.45385"
     id="path94" />
  <path
     d="M 3274.75,44110.89 L 6474.15,44110.89 L 6474.15,44185.391 L 3274.75,44185.391 L 3274.75,44110.89"
     fill="none"
     stroke="#000000"
     stroke-width="10.45385"
     id="path96" />
  <path
     d="M 3274.75,44270.89 L 6474.15,44270.89 L 6474.15,44345.39 L 3274.75,44345.39 L 3274.75,44270.89"
     fill="none"
     stroke="#000000"
     stroke-width="10.45385"
     id="path98" />
  <path
     d="M 3274.75,44430.89 L 6474.15,44430.89 L 6474.15,44505.391 L 3274.75,44505.391 L 3274.75,44430.89"
     fill="none"
     stroke="#000000"
     stroke-width="10.45385"
     id="path100" />
  <path
     d="M 3274.75,44590.89 L 6474.15,44590.89 L 6474.15,44665.39 L 3274.75,44665.39 L 3274.75,44590.89"
     fill="none"
     stroke="#000000"
     stroke-width="10.45385"
     id="path102" />
  <path
     d="M 3274.75,44750.89 L 6474.15,44750.89 L 6474.15,44825.39 L 3274.75,44825.39 L 3274.75,44750.89"
     fill="none"
     stroke="#000000"
     stroke-width="10.45385"
     id="path104" />
  <path
     d="M 3274.75,44910.89 L 6474.15,44910.89 L 6474.15,44985.39 L 3274.75,44985.39 L 3274.75,44910.89"
     fill="none"
     stroke="#000000"
     stroke-width="10.45385"
     id="path106" />
  <path
     d="M 3274.75,45070.891 L 6474.15,45070.891 L 6474.15,45145.39 L 3274.75,45145.39 L 3274.75,45070.891"
     fill="none"
     stroke="#000000"
     stroke-width="10.45385"
     id="path108" />
  <path
     d="M 3274.75,45230.89 L 6474.15,45230.89 L 6474.15,45305.39 L 3274.75,45305.39 L 3274.75,45230.89"
     fill="none"
     stroke="#000000"
     stroke-width="10.45385"
     id="path110" />
  <path
     d="M 8524.25,47554.99 L 9523.75,47554.99 L 9523.75,46555.39 L 9273.75,46555.39 L 9273.75,43455.49 L 8774.25,43455.49 L 8774.25,46555.39 L 8524.25,46555.39 L 8524.25,47554.99"
     fill="none"
     stroke="#000000"
     stroke-width="10.45385"
     id="path112" />
  <path
     d="M -454.925,38586.615 L 9998.925,38586.615 L 9998.925,48030.165 L -454.925,48030.165 L -454.925,38586.615"
     fill="none"
     stroke="#000000"
     stroke-width="10.45385"
     id="path114" />
</svg>
