<?xml version="1.0" encoding="UTF-8" standalone="no"?>
<svg
   xmlns:dc="http://purl.org/dc/elements/1.1/"
   xmlns:cc="http://creativecommons.org/ns#"
   xmlns:rdf="http://www.w3.org/1999/02/22-rdf-syntax-ns#"
   xmlns:svg="http://www.w3.org/2000/svg"
   xmlns="http://www.w3.org/2000/svg"
   xmlns:sodipodi="http://sodipodi.sourceforge.net/DTD/sodipodi-0.dtd"
   xmlns:inkscape="http://www.inkscape.org/namespaces/inkscape"
   height="600px"
   version="1.1"
   viewBox="13.0915295 13.0915295 82.557941 82.557941"
   width="600px"
   id="svg2"
   inkscape:version="0.91 r13725"
   sodipodi:docname="output.svg">
  <metadata
     id="metadata34">
    <rdf:RDF>
      <cc:Work
         rdf:about="">
        <dc:format>image/svg+xml</dc:format>
        <dc:type
           rdf:resource="http://purl.org/dc/dcmitype/StillImage" />
        <dc:title></dc:title>
      </cc:Work>
    </rdf:RDF>
  </metadata>
  <sodipodi:namedview
     pagecolor="#ffffff"
     bordercolor="#666666"
     borderopacity="1"
     objecttolerance="10"
     gridtolerance="10"
     guidetolerance="10"
     inkscape:pageopacity="0"
     inkscape:pageshadow="2"
     inkscape:window-width="640"
     inkscape:window-height="480"
     id="namedview32"
     showgrid="false"
     inkscape:zoom="0.39333333"
     inkscape:cx="300"
     inkscape:cy="300"
     inkscape:window-x="0"
     inkscape:window-y="0"
     inkscape:window-maximized="0"
     inkscape:current-layer="svg2" />
  <defs
     id="defs4" />
  <path
     d="M 44.52,56.553 L 56.567,56.553 L 56.567,56.638 L 44.52,56.638 L 44.52,56.553"
     fill="none"
     stroke="#000000"
     stroke-width="0.068741"
     id="path6" />
  <path
     d="M 41.402,56.27 L 56.567,56.27 L 56.567,56.355 L 41.402,56.355 L 41.402,56.27"
     fill="none"
     stroke="#000000"
     stroke-width="0.068741"
     id="path8" />
  <path
     d="M 47.638,55.986 L 56.567,55.986 L 56.567,56.071 L 47.638,56.071 L 47.638,55.986"
     fill="none"
     stroke="#000000"
     stroke-width="0.068741"
     id="path10" />
  <path
     d="M 50.756,55.703 L 56.567,55.703 L 56.567,55.788 L 50.756,55.788 L 50.756,55.703"
     fill="none"
     stroke="#000000"
     stroke-width="0.068741"
     id="path12" />
  <path
     d="M 20.0,67.878 L 45.37,67.878 L 45.37,69.663 L 20.0,69.663 L 20.0,67.878"
     fill="none"
     stroke="#000000"
     stroke-width="0.068741"
     id="path14" />
  <path
     d="M 44.52,56.511 L 45.37,56.511 L 45.37,68.235 L 44.52,68.235 L 44.52,56.511"
     fill="none"
     stroke="#000000"
     stroke-width="0.068741"
     id="path16" />
  <path
     d="M 20.0,60.678 L 42.252,60.678 L 42.252,62.463 L 20.0,62.463 L 20.0,60.678"
     fill="none"
     stroke="#000000"
     stroke-width="0.068741"
     id="path18" />
  <path
     d="M 41.402,56.227 L 42.252,56.227 L 42.252,61.035 L 41.402,61.035 L 41.402,56.227"
     fill="none"
     stroke="#000000"
     stroke-width="0.068741"
     id="path20" />
  <path
     d="M 20.0,35.477 L 48.488,35.477 L 48.488,37.263 L 20.0,37.263 L 20.0,35.477"
     fill="none"
     stroke="#000000"
     stroke-width="0.068741"
     id="path22" />
  <path
     d="M 47.638,36.9058 L 48.488,36.9058 L 48.488,56.114 L 47.638,56.114 L 47.638,36.9058"
     fill="none"
     stroke="#000000"
     stroke-width="0.068741"
     id="path24" />
  <path
     d="M 20.0,28.277 L 51.607,28.277 L 51.607,30.063 L 20.0,30.063 L 20.0,28.277"
     fill="none"
     stroke="#000000"
     stroke-width="0.068741"
     id="path26" />
  <path
     d="M 50.756,29.7058 L 51.607,29.7058 L 51.607,55.83 L 50.756,55.83 L 50.756,29.7058"
     fill="none"
     stroke="#000000"
     stroke-width="0.068741"
     id="path28" />
  <path
     d="M 20.0,20.0 L 20.0,88.741 L 88.741,88.741 L 88.741,20.0 L 20.0,20.0"
     fill="none"
     stroke="#000000"
     stroke-width="0.068741"
     id="path30" />
</svg>
