<?xml version="1.0" encoding="UTF-8" standalone="no"?>
<svg
   xmlns:dc="http://purl.org/dc/elements/1.1/"
   xmlns:cc="http://creativecommons.org/ns#"
   xmlns:rdf="http://www.w3.org/1999/02/22-rdf-syntax-ns#"
   xmlns:svg="http://www.w3.org/2000/svg"
   xmlns="http://www.w3.org/2000/svg"
   xmlns:sodipodi="http://sodipodi.sourceforge.net/DTD/sodipodi-0.dtd"
   xmlns:inkscape="http://www.inkscape.org/namespaces/inkscape"
   height="578px"
   version="1.1"
   viewBox="-733.87181325 26849.1325867 6205.3586265 5967.7418265"
   width="600px"
   id="svg2"
   inkscape:version="0.91 r13725"
   sodipodi:docname="output.svg">
  <metadata
     id="metadata84">
    <rdf:RDF>
      <cc:Work
         rdf:about="">
        <dc:format>image/svg+xml</dc:format>
        <dc:type
           rdf:resource="http://purl.org/dc/dcmitype/StillImage" />
        <dc:title></dc:title>
      </cc:Work>
    </rdf:RDF>
  </metadata>
  <sodipodi:namedview
     pagecolor="#ffffff"
     bordercolor="#666666"
     borderopacity="1"
     objecttolerance="10"
     gridtolerance="10"
     guidetolerance="10"
     inkscape:pageopacity="0"
     inkscape:pageshadow="2"
     inkscape:window-width="640"
     inkscape:window-height="480"
     id="namedview82"
     showgrid="false"
     inkscape:zoom="0.4083045"
     inkscape:cx="300"
     inkscape:cy="289"
     inkscape:window-x="0"
     inkscape:window-y="0"
     inkscape:window-maximized="0"
     inkscape:current-layer="svg2" />
  <defs
     id="defs4" />
  <path
     d="M 1056.558,29024.845 L 1281.058,29024.845 L 1281.058,29099.345 L 1056.558,29099.345 L 1056.558,29024.845"
     fill="none"
     stroke="#000000"
     stroke-width="5.1668265"
     id="path6" />
  <path
     d="M 1356.558,29024.845 L 1581.058,29024.845 L 1581.058,29099.345 L 1356.558,29099.345 L 1356.558,29024.845"
     fill="none"
     stroke="#000000"
     stroke-width="5.1668265"
     id="path8" />
  <path
     d="M 1656.557,29024.845 L 1881.058,29024.845 L 1881.058,29099.345 L 1656.557,29099.345 L 1656.557,29024.845"
     fill="none"
     stroke="#000000"
     stroke-width="5.1668265"
     id="path10" />
  <path
     d="M 2106.557,29024.845 L 2181.058,29024.845 L 2181.058,32082.554 L 2106.557,32082.554 L 2106.557,29024.845"
     fill="none"
     stroke="#000000"
     stroke-width="5.1668265"
     id="path12" />
  <path
     d="M 2256.558,29024.845 L 2481.058,29024.845 L 2481.058,29099.345 L 2256.558,29099.345 L 2256.558,29024.845"
     fill="none"
     stroke="#000000"
     stroke-width="5.1668265"
     id="path14" />
  <path
     d="M 2706.557,29024.845 L 2781.058,29024.845 L 2781.058,32082.554 L 2706.557,32082.554 L 2706.557,29024.845"
     fill="none"
     stroke="#000000"
     stroke-width="5.1668265"
     id="path16" />
  <path
     d="M 2856.558,29024.845 L 3081.058,29024.845 L 3081.058,29099.345 L 2856.558,29099.345 L 2856.558,29024.845"
     fill="none"
     stroke="#000000"
     stroke-width="5.1668265"
     id="path18" />
  <path
     d="M 3156.557,29024.845 L 3381.057,29024.845 L 3381.057,29099.345 L 3156.557,29099.345 L 3156.557,29024.845"
     fill="none"
     stroke="#000000"
     stroke-width="5.1668265"
     id="path20" />
  <path
     d="M 3456.558,29024.845 L 3681.058,29024.845 L 3681.058,29099.345 L 3456.558,29099.345 L 3456.558,29024.845"
     fill="none"
     stroke="#000000"
     stroke-width="5.1668265"
     id="path22" />
  <path
     d="M 1206.558,32008.053 L 1431.058,32008.053 L 1431.058,32082.553 L 1206.558,32082.553 L 1206.558,32008.053"
     fill="none"
     stroke="#000000"
     stroke-width="5.1668265"
     id="path24" />
  <path
     d="M 1506.558,32008.054 L 1731.058,32008.054 L 1731.058,32082.554 L 1506.558,32082.554 L 1506.558,32008.054"
     fill="none"
     stroke="#000000"
     stroke-width="5.1668265"
     id="path26" />
  <path
     d="M 1806.558,32008.054 L 2031.058,32008.054 L 2031.058,32082.554 L 1806.558,32082.554 L 1806.558,32008.054"
     fill="none"
     stroke="#000000"
     stroke-width="5.1668265"
     id="path28" />
  <path
     d="M 2406.558,32008.054 L 2631.058,32008.054 L 2631.058,32082.554 L 2406.558,32082.554 L 2406.558,32008.054"
     fill="none"
     stroke="#000000"
     stroke-width="5.1668265"
     id="path30" />
  <path
     d="M 3006.558,32008.054 L 3231.058,32008.054 L 3231.058,32082.554 L 3006.558,32082.554 L 3006.558,32008.054"
     fill="none"
     stroke="#000000"
     stroke-width="5.1668265"
     id="path32" />
  <path
     d="M 3306.558,32008.054 L 3531.058,32008.054 L 3531.058,32082.554 L 3306.558,32082.554 L 3306.558,32008.054"
     fill="none"
     stroke="#000000"
     stroke-width="5.1668265"
     id="path34" />
  <path
     d="M 270.25,32082.553 L 1131.058,32082.553 L 1131.058,31583.053 L 769.75,31583.053 L 769.75,28583.053 L 1019.75,28583.053 L 1019.75,27583.453 L 20.25,27583.453 L 20.25,28583.053 L 270.25,28583.053 L 270.25,32082.553"
     fill="none"
     stroke="#000000"
     stroke-width="5.1668265"
     id="path36" />
  <path
     d="M 3606.557,32082.553 L 4467.365,32082.553 L 4467.365,28583.053 L 4717.365,28583.053 L 4717.365,27583.453 L 3717.865,27583.453 L 3717.865,28583.053 L 3967.865,28583.053 L 3967.865,31583.054 L 3606.557,31583.054 L 3606.557,32082.553"
     fill="none"
     stroke="#000000"
     stroke-width="5.1668265"
     id="path38" />
  <path
     d="M 1956.558,29024.845 L 2121.4572,29024.845 L 2121.4572,29099.345 L 1956.558,29099.345 L 1956.558,29024.845"
     fill="none"
     stroke="#000000"
     stroke-width="5.1668265"
     id="path40" />
  <path
     d="M 2166.1578,32008.054 L 2331.057,32008.054 L 2331.057,32082.554 L 2166.1578,32082.554 L 2166.1578,32008.054"
     fill="none"
     stroke="#000000"
     stroke-width="5.1668265"
     id="path42" />
  <path
     d="M 2556.557,29024.845 L 2721.4572,29024.845 L 2721.4572,29099.345 L 2556.557,29099.345 L 2556.557,29024.845"
     fill="none"
     stroke="#000000"
     stroke-width="5.1668265"
     id="path44" />
  <path
     d="M 2766.1578,32008.054 L 2931.057,32008.054 L 2931.057,32082.554 L 2766.1578,32082.554 L 2766.1578,32008.054"
     fill="none"
     stroke="#000000"
     stroke-width="5.1668265"
     id="path46" />
  <path
     d="M 1206.558,29084.445 L 1281.058,29084.445 L 1281.058,32022.953 L 1206.558,32022.953 L 1206.558,29084.445"
     fill="none"
     stroke="#000000"
     stroke-width="5.1668265"
     id="path48" />
  <path
     d="M 1356.558,29084.445 L 1431.058,29084.445 L 1431.058,32022.953 L 1356.558,32022.953 L 1356.558,29084.445"
     fill="none"
     stroke="#000000"
     stroke-width="5.1668265"
     id="path50" />
  <path
     d="M 1506.558,29084.445 L 1581.058,29084.445 L 1581.058,32022.954 L 1506.558,32022.954 L 1506.558,29084.445"
     fill="none"
     stroke="#000000"
     stroke-width="5.1668265"
     id="path52" />
  <path
     d="M 1656.558,29084.445 L 1731.058,29084.445 L 1731.058,32022.954 L 1656.558,32022.954 L 1656.558,29084.445"
     fill="none"
     stroke="#000000"
     stroke-width="5.1668265"
     id="path54" />
  <path
     d="M 1806.558,29084.445 L 1881.058,29084.445 L 1881.058,32022.954 L 1806.558,32022.954 L 1806.558,29084.445"
     fill="none"
     stroke="#000000"
     stroke-width="5.1668265"
     id="path56" />
  <path
     d="M 2406.558,29084.445 L 2481.058,29084.445 L 2481.058,32022.954 L 2406.558,32022.954 L 2406.558,29084.445"
     fill="none"
     stroke="#000000"
     stroke-width="5.1668265"
     id="path58" />
  <path
     d="M 3006.558,29084.445 L 3081.058,29084.445 L 3081.058,32022.954 L 3006.558,32022.954 L 3006.558,29084.445"
     fill="none"
     stroke="#000000"
     stroke-width="5.1668265"
     id="path60" />
  <path
     d="M 3156.558,29084.445 L 3231.058,29084.445 L 3231.058,32022.954 L 3156.558,32022.954 L 3156.558,29084.445"
     fill="none"
     stroke="#000000"
     stroke-width="5.1668265"
     id="path62" />
  <path
     d="M 3306.558,29084.445 L 3381.057,29084.445 L 3381.057,32022.954 L 3306.558,32022.954 L 3306.558,29084.445"
     fill="none"
     stroke="#000000"
     stroke-width="5.1668265"
     id="path64" />
  <path
     d="M 3456.558,29084.445 L 3531.058,29084.445 L 3531.058,32022.954 L 3456.558,32022.954 L 3456.558,29084.445"
     fill="none"
     stroke="#000000"
     stroke-width="5.1668265"
     id="path66" />
  <path
     d="M 1056.558,29084.445 L 1131.058,29084.445 L 1131.058,31682.953 L 1056.558,31682.953 L 1056.558,29084.445"
     fill="none"
     stroke="#000000"
     stroke-width="5.1668265"
     id="path68" />
  <path
     d="M 3606.558,29084.445 L 3681.058,29084.445 L 3681.058,31682.9538 L 3606.558,31682.9538 L 3606.558,29084.445"
     fill="none"
     stroke="#000000"
     stroke-width="5.1668265"
     id="path70" />
  <path
     d="M 1956.558,29084.445 L 2031.058,29084.445 L 2031.058,32022.954 L 1956.558,32022.954 L 1956.558,29084.445"
     fill="none"
     stroke="#000000"
     stroke-width="5.1668265"
     id="path72" />
  <path
     d="M 2256.558,29084.445 L 2331.057,29084.445 L 2331.057,32022.954 L 2256.558,32022.954 L 2256.558,29084.445"
     fill="none"
     stroke="#000000"
     stroke-width="5.1668265"
     id="path74" />
  <path
     d="M 2556.558,29084.445 L 2631.058,29084.445 L 2631.058,32022.954 L 2556.558,32022.954 L 2556.558,29084.445"
     fill="none"
     stroke="#000000"
     stroke-width="5.1668265"
     id="path76" />
  <path
     d="M 2856.558,29084.445 L 2931.057,29084.445 L 2931.057,32022.954 L 2856.558,32022.954 L 2856.558,29084.445"
     fill="none"
     stroke="#000000"
     stroke-width="5.1668265"
     id="path78" />
  <path
     d="M -214.60575,27348.59725 L 4952.22075,27348.59725 L 4952.22075,32317.40975 L -214.60575,32317.40975 L -214.60575,27348.59725"
     fill="none"
     stroke="#000000"
     stroke-width="5.1668265"
     id="path80" />
</svg>
