<?xml version="1.0" ?>
<svg baseProfile="full" height="600px" version="1.1" viewBox="13.0915295 13.0915295 82.557941 82.557941" width="600px" xmlns="http://www.w3.org/2000/svg" xmlns:ev="http://www.w3.org/2001/xml-events" xmlns:xlink="http://www.w3.org/1999/xlink">
	<defs/>
	<path d="M 20.0,20.0 L 20.0,88.741 L 88.741,88.741 L 88.741,20.0 L 20.0,20.0" fill="none" stroke="#000000" stroke-width="0.068741"/>
	<path d="M 52.315,56.695 L 56.284,56.695 L 56.284,56.78 L 52.315,56.78 L 52.315,56.695" fill="none" stroke="#000000" stroke-width="0.068741"/>
	<path d="M 39.843,56.411 L 56.284,56.411 L 56.284,56.496 L 39.843,56.496 L 39.843,56.411" fill="none" stroke="#000000" stroke-width="0.068741"/>
	<path d="M 42.961,56.128 L 56.284,56.128 L 56.284,56.213 L 42.961,56.213 L 42.961,56.128" fill="none" stroke="#000000" stroke-width="0.068741"/>
	<path d="M 46.079,55.844 L 56.284,55.844 L 56.284,55.929 L 46.079,55.929 L 46.079,55.844" fill="none" stroke="#000000" stroke-width="0.068741"/>
	<path d="M 49.197,55.561 L 56.284,55.561 L 56.284,55.646 L 49.197,55.646 L 49.197,55.561" fill="none" stroke="#000000" stroke-width="0.068741"/>
	<path d="M 20.0,57.078 L 40.693,57.078 L 40.693,58.863 L 20.0,58.863 L 20.0,57.078" fill="none" stroke="#000000" stroke-width="0.068741"/>
	<path d="M 39.843,56.369 L 40.693,56.369 L 40.693,57.435 L 39.843,57.435 L 39.843,56.369" fill="none" stroke="#000000" stroke-width="0.068741"/>
	<path d="M 20.0,46.277 L 43.811,46.277 L 43.811,48.063 L 20.0,48.063 L 20.0,46.277" fill="none" stroke="#000000" stroke-width="0.068741"/>
	<path d="M 42.961,47.7058 L 43.811,47.7058 L 43.811,56.255 L 42.961,56.255 L 42.961,47.7058" fill="none" stroke="#000000" stroke-width="0.068741"/>
	<path d="M 20.0,39.077 L 46.929,39.077 L 46.929,40.863 L 20.0,40.863 L 20.0,39.077" fill="none" stroke="#000000" stroke-width="0.068741"/>
	<path d="M 46.079,40.5058 L 46.929,40.5058 L 46.929,55.972 L 46.079,55.972 L 46.079,40.5058" fill="none" stroke="#000000" stroke-width="0.068741"/>
	<path d="M 20.0,31.877 L 50.048,31.877 L 50.048,33.663 L 20.0,33.663 L 20.0,31.877" fill="none" stroke="#000000" stroke-width="0.068741"/>
	<path d="M 49.197,33.3058 L 50.048,33.3058 L 50.048,55.688 L 49.197,55.688 L 49.197,33.3058" fill="none" stroke="#000000" stroke-width="0.068741"/>
	<path d="M 28.277,88.741 L 30.063,88.741 L 30.063,87.664 L 53.166,87.664 L 53.166,85.878 L 28.277,85.878 L 28.277,88.741" fill="none" stroke="#000000" stroke-width="0.068741"/>
	<path d="M 52.315,56.652 L 53.166,56.652 L 53.166,86.2352 L 52.315,86.2352 L 52.315,56.652" fill="none" stroke="#000000" stroke-width="0.068741"/>
</svg>
