<?xml version="1.0" encoding="UTF-8" standalone="no"?>
<svg
   xmlns:dc="http://purl.org/dc/elements/1.1/"
   xmlns:cc="http://creativecommons.org/ns#"
   xmlns:rdf="http://www.w3.org/1999/02/22-rdf-syntax-ns#"
   xmlns:svg="http://www.w3.org/2000/svg"
   xmlns="http://www.w3.org/2000/svg"
   xmlns:sodipodi="http://sodipodi.sourceforge.net/DTD/sodipodi-0.dtd"
   xmlns:inkscape="http://www.inkscape.org/namespaces/inkscape"
   height="600px"
   version="1.1"
   viewBox="-6.9084705 -6.9084705 82.557941 82.557941"
   width="600px"
   id="svg2"
   inkscape:version="0.91 r13725"
   sodipodi:docname="layer1.svg">
  <metadata
     id="metadata46">
    <rdf:RDF>
      <cc:Work
         rdf:about="">
        <dc:format>image/svg+xml</dc:format>
        <dc:type
           rdf:resource="http://purl.org/dc/dcmitype/StillImage" />
        <dc:title></dc:title>
      </cc:Work>
    </rdf:RDF>
  </metadata>
  <sodipodi:namedview
     pagecolor="#ffffff"
     bordercolor="#666666"
     borderopacity="1"
     objecttolerance="10"
     gridtolerance="10"
     guidetolerance="10"
     inkscape:pageopacity="0"
     inkscape:pageshadow="2"
     inkscape:window-width="640"
     inkscape:window-height="480"
     id="namedview44"
     showgrid="false"
     inkscape:zoom="0.39333333"
     inkscape:cx="300"
     inkscape:cy="300"
     inkscape:window-x="0"
     inkscape:window-y="0"
     inkscape:window-maximized="0"
     inkscape:current-layer="svg2" />
  <defs
     id="defs4" />
  <path
     d="M 0.0,0.0 L 68.741,0.0 L 68.741,68.741 L 0.0,68.741 L 0.0,0.0"
     fill="none"
     stroke="#000000"
     stroke-width="0.068741"
     id="path6" />
  <path
     d="M 29.197,36.695 L 36.851,36.695 L 36.851,36.78 L 29.197,36.78 L 29.197,36.695"
     fill="none"
     stroke="#000000"
     stroke-width="0.068741"
     id="path8" />
  <path
     d="M 26.079,36.411 L 36.851,36.411 L 36.851,36.496 L 26.079,36.496 L 26.079,36.411"
     fill="none"
     stroke="#000000"
     stroke-width="0.068741"
     id="path10" />
  <path
     d="M 22.961,36.128 L 36.851,36.128 L 36.851,36.213 L 22.961,36.213 L 22.961,36.128"
     fill="none"
     stroke="#000000"
     stroke-width="0.068741"
     id="path12" />
  <path
     d="M 19.843,35.844 L 36.851,35.844 L 36.851,35.929 L 19.843,35.929 L 19.843,35.844"
     fill="none"
     stroke="#000000"
     stroke-width="0.068741"
     id="path14" />
  <path
     d="M 32.315,35.561 L 36.851,35.561 L 36.851,35.646 L 32.315,35.646 L 32.315,35.561"
     fill="none"
     stroke="#000000"
     stroke-width="0.068741"
     id="path16" />
  <path
     d="M 29.197,36.652 L 30.048,36.652 L 30.048,59.678 L 29.197,59.678 L 29.197,36.652"
     fill="none"
     stroke="#000000"
     stroke-width="0.068741"
     id="path18" />
  <path
     d="M 0.0,58.678 L 30.048,58.678 L 30.048,60.464 L 0.0,60.464 L 0.0,58.678"
     fill="none"
     stroke="#000000"
     stroke-width="0.068741"
     id="path20" />
  <path
     d="M 26.079,36.369 L 26.929,36.369 L 26.929,52.478 L 26.079,52.478 L 26.079,36.369"
     fill="none"
     stroke="#000000"
     stroke-width="0.068741"
     id="path22" />
  <path
     d="M 0.0,51.478 L 26.929,51.478 L 26.929,53.264 L 0.0,53.264 L 0.0,51.478"
     fill="none"
     stroke="#000000"
     stroke-width="0.068741"
     id="path24" />
  <path
     d="M 22.961,36.085 L 23.811,36.085 L 23.811,45.278 L 22.961,45.278 L 22.961,36.085"
     fill="none"
     stroke="#000000"
     stroke-width="0.068741"
     id="path26" />
  <path
     d="M 0.0,44.278 L 23.811,44.278 L 23.811,46.063 L 0.0,46.063 L 0.0,44.278"
     fill="none"
     stroke="#000000"
     stroke-width="0.068741"
     id="path28" />
  <path
     d="M 0.0,33.477 L 20.693,33.477 L 20.693,35.263 L 0.0,35.263 L 0.0,33.477"
     fill="none"
     stroke="#000000"
     stroke-width="0.068741"
     id="path30" />
  <path
     d="M 19.843,34.263 L 20.693,34.263 L 20.693,35.972 L 19.843,35.972 L 19.843,34.263"
     fill="none"
     stroke="#000000"
     stroke-width="0.068741"
     id="path32" />
  <path
     d="M 0.0,4.677 L 3.317,4.677 L 3.317,6.463 L 0.0,6.463 L 0.0,4.677"
     fill="none"
     stroke="#000000"
     stroke-width="0.068741"
     id="path34" />
  <path
     d="M 4.677,0.0 L 6.463,0.0 L 6.463,5.677 L 4.677,5.677 L 4.677,0.0"
     fill="none"
     stroke="#000000"
     stroke-width="0.068741"
     id="path36" />
  <path
     d="M 4.677,4.677 L 33.166,4.677 L 33.166,6.463 L 4.677,6.463 L 4.677,4.677"
     fill="none"
     stroke="#000000"
     stroke-width="0.068741"
     id="path38" />
  <path
     d="M 32.315,5.463 L 33.166,5.463 L 33.166,35.688 L 32.315,35.688 L 32.315,5.463"
     fill="none"
     stroke="#000000"
     stroke-width="0.068741"
     id="path40" />
  <path
     d="M 4.677,65.878 L 6.463,65.878 L 6.463,68.741 L 4.677,68.741 L 4.677,65.878"
     fill="none"
     stroke="#000000"
     stroke-width="0.068741"
     id="path42" />
</svg>
