<?xml version="1.0" ?>
<svg xmlns="http://www.w3.org/2000/svg" xmlns:ev="http://www.w3.org/2001/xml-events" xmlns:xlink="http://www.w3.org/1999/xlink" baseProfile="full" height="464px" version="1.1" viewBox="-22.591503100000004 671.9452969 268.5030062 207.44940619999994" width="600px">
	<defs/>
	<path d="M -0.12310000000000265,689.3259 L 223.44310000000002,689.3259 L 223.44310000000002,862.0141 L -0.12310000000000265,862.0141 L -0.12310000000000265,689.3259" fill="none" stroke="#000000" stroke-width="0.22356620000000002"/>
	<path d="M 188.477,699.488 L 213.281,699.488 L 213.281,706.578 L 188.477,706.578 L 188.477,699.488" fill="none" stroke="#000000" stroke-width="0.22356620000000002"/>
	<path d="M 188.477,703.742 L 192.02,703.742 L 192.02,713.664 L 188.477,713.664 L 188.477,703.742" fill="none" stroke="#000000" stroke-width="0.22356620000000002"/>
	<path d="M 18.613,714.559 L 51.512,714.559 L 51.512,715.129 L 18.613,715.129 L 18.613,714.559" fill="none" stroke="#000000" stroke-width="0.22356620000000002"/>
	<path d="M 17.125,717.207 L 20.668,717.207 L 20.668,720.75 L 17.125,720.75 L 17.125,717.207" fill="none" stroke="#000000" stroke-width="0.22356620000000002"/>
	<path d="M 105.141,717.559 L 110.809,717.559 L 110.809,723.23 L 105.141,723.23 L 105.141,717.559" fill="none" stroke="#000000" stroke-width="0.22356620000000002"/>
	<path d="M 51.2852,702.82 L 105.707,702.82 L 105.707,703.387 L 51.2852,703.387 L 51.2852,702.82" fill="none" stroke="#000000" stroke-width="0.22356620000000002"/>
	<path d="M 50.945,702.82 L 51.512,702.82 L 51.512,714.787 L 50.945,714.787 L 50.945,702.82" fill="none" stroke="#000000" stroke-width="0.22356620000000002"/>
	<path d="M 105.141,716.426 L 107.691,716.426 L 107.691,719.8274 L 105.141,719.8274 L 105.141,716.426" fill="none" stroke="#000000" stroke-width="0.22356620000000002"/>
	<path d="M 18.613,714.901 L 19.18,714.901 L 19.18,718.6242 L 18.613,718.6242 L 18.613,714.901" fill="none" stroke="#000000" stroke-width="0.22356620000000002"/>
	<path d="M 108.5418,717.559 L 111.941,717.559 L 111.941,720.113 L 108.5418,720.113 L 108.5418,717.559" fill="none" stroke="#000000" stroke-width="0.22356620000000002"/>
	<path d="M 104.008,720.68 L 107.40820000000001,720.68 L 107.40820000000001,723.23 L 104.008,723.23 L 104.008,720.68" fill="none" stroke="#000000" stroke-width="0.22356620000000002"/>
	<path d="M 108.258,720.9616 L 110.809,720.9616 L 110.809,724.363 L 108.258,724.363 L 108.258,720.9616" fill="none" stroke="#000000" stroke-width="0.22356620000000002"/>
	<path d="M 105.141,703.1602 L 105.707,703.1602 L 105.707,716.8792 L 105.141,716.8792 L 105.141,703.1602" fill="none" stroke="#000000" stroke-width="0.22356620000000002"/>
	<path d="M 171.805,714.559 L 204.707,714.559 L 204.707,715.129 L 171.805,715.129 L 171.805,714.559" fill="none" stroke="#000000" stroke-width="0.22356620000000002"/>
	<path d="M 202.652,717.207 L 206.195,717.207 L 206.195,720.75 L 202.652,720.75 L 202.652,717.207" fill="none" stroke="#000000" stroke-width="0.22356620000000002"/>
	<path d="M 112.512,717.559 L 118.18,717.559 L 118.18,723.23 L 112.512,723.23 L 112.512,717.559" fill="none" stroke="#000000" stroke-width="0.22356620000000002"/>
	<path d="M 112.512,702.82 L 172.03300000000002,702.82 L 172.03300000000002,703.387 L 112.512,703.387 L 112.512,702.82" fill="none" stroke="#000000" stroke-width="0.22356620000000002"/>
	<path d="M 171.805,702.82 L 172.375,702.82 L 172.375,714.787 L 171.805,714.787 L 171.805,702.82" fill="none" stroke="#000000" stroke-width="0.22356620000000002"/>
	<path d="M 112.512,716.426 L 115.063,716.426 L 115.063,719.8274 L 112.512,719.8274 L 112.512,716.426" fill="none" stroke="#000000" stroke-width="0.22356620000000002"/>
	<path d="M 204.141,714.901 L 204.707,714.901 L 204.707,718.6242 L 204.141,718.6242 L 204.141,714.901" fill="none" stroke="#000000" stroke-width="0.22356620000000002"/>
	<path d="M 115.9128,717.559 L 119.313,717.559 L 119.313,720.113 L 115.9128,720.113 L 115.9128,717.559" fill="none" stroke="#000000" stroke-width="0.22356620000000002"/>
	<path d="M 111.375,720.68 L 114.7792,720.68 L 114.7792,723.23 L 111.375,723.23 L 111.375,720.68" fill="none" stroke="#000000" stroke-width="0.22356620000000002"/>
	<path d="M 115.629,720.9616 L 118.18,720.9616 L 118.18,724.363 L 115.629,724.363 L 115.629,720.9616" fill="none" stroke="#000000" stroke-width="0.22356620000000002"/>
	<path d="M 112.512,703.1602 L 113.078,703.1602 L 113.078,716.8792 L 112.512,716.8792 L 112.512,703.1602" fill="none" stroke="#000000" stroke-width="0.22356620000000002"/>
	<path d="M 41.645,703.035 L 42.211,703.035 L 42.211,706.578 L 41.645,706.578 L 41.645,703.035" fill="none" stroke="#000000" stroke-width="0.22356620000000002"/>
	<path d="M 181.109,703.035 L 181.675,703.035 L 181.675,706.578 L 181.109,706.578 L 181.109,703.035" fill="none" stroke="#000000" stroke-width="0.22356620000000002"/>
	<path d="M 54.93,703.953 L 98.336,703.953 L 98.336,704.523 L 54.93,704.523 L 54.93,703.953" fill="none" stroke="#000000" stroke-width="0.22356620000000002"/>
	<path d="M 25.699,715.742 L 55.496,715.742 L 55.496,716.309 L 25.699,716.309 L 25.699,715.742" fill="none" stroke="#000000" stroke-width="0.22356620000000002"/>
	<path d="M 24.211,717.207 L 27.754,717.207 L 27.754,720.75 L 24.211,720.75 L 24.211,717.207" fill="none" stroke="#000000" stroke-width="0.22356620000000002"/>
	<path d="M 97.77,717.559 L 103.441,717.559 L 103.441,723.23 L 97.77,723.23 L 97.77,717.559" fill="none" stroke="#000000" stroke-width="0.22356620000000002"/>
	<path d="M 54.93,704.295 L 55.496,704.295 L 55.496,715.9688 L 54.93,715.9688 L 54.93,704.295" fill="none" stroke="#000000" stroke-width="0.22356620000000002"/>
	<path d="M 97.77,716.426 L 100.32,716.426 L 100.32,719.8274 L 97.77,719.8274 L 97.77,716.426" fill="none" stroke="#000000" stroke-width="0.22356620000000002"/>
	<path d="M 25.699,716.0822 L 26.266,716.0822 L 26.266,718.6242 L 25.699,718.6242 L 25.699,716.0822" fill="none" stroke="#000000" stroke-width="0.22356620000000002"/>
	<path d="M 101.1726,717.559 L 104.574,717.559 L 104.574,720.113 L 101.1726,720.113 L 101.1726,717.559" fill="none" stroke="#000000" stroke-width="0.22356620000000002"/>
	<path d="M 96.637,720.68 L 100.0384,720.68 L 100.0384,723.23 L 96.637,723.23 L 96.637,720.68" fill="none" stroke="#000000" stroke-width="0.22356620000000002"/>
	<path d="M 100.887,720.9616 L 103.441,720.9616 L 103.441,724.363 L 100.887,724.363 L 100.887,720.9616" fill="none" stroke="#000000" stroke-width="0.22356620000000002"/>
	<path d="M 97.77,704.295 L 98.336,704.295 L 98.336,717.78656 L 97.77,717.78656 L 97.77,704.295" fill="none" stroke="#000000" stroke-width="0.22356620000000002"/>
	<path d="M 119.879,703.953 L 168.387,703.953 L 168.387,704.523 L 119.879,704.523 L 119.879,703.953" fill="none" stroke="#000000" stroke-width="0.22356620000000002"/>
	<path d="M 167.82,715.742 L 197.621,715.742 L 197.621,716.309 L 167.82,716.309 L 167.82,715.742" fill="none" stroke="#000000" stroke-width="0.22356620000000002"/>
	<path d="M 195.566,717.207 L 199.109,717.207 L 199.109,720.75 L 195.566,720.75 L 195.566,717.207" fill="none" stroke="#000000" stroke-width="0.22356620000000002"/>
	<path d="M 119.879,717.559 L 125.551,717.559 L 125.551,723.23 L 119.879,723.23 L 119.879,717.559" fill="none" stroke="#000000" stroke-width="0.22356620000000002"/>
	<path d="M 167.82,704.295 L 168.387,704.295 L 168.387,715.9688 L 167.82,715.9688 L 167.82,704.295" fill="none" stroke="#000000" stroke-width="0.22356620000000002"/>
	<path d="M 119.879,716.426 L 122.43,716.426 L 122.43,719.8274 L 119.879,719.8274 L 119.879,716.426" fill="none" stroke="#000000" stroke-width="0.22356620000000002"/>
	<path d="M 197.055,716.0822 L 197.621,716.0822 L 197.621,718.6242 L 197.055,718.6242 L 197.055,716.0822" fill="none" stroke="#000000" stroke-width="0.22356620000000002"/>
	<path d="M 123.2822,717.559 L 126.684,717.559 L 126.684,720.113 L 123.2822,720.113 L 123.2822,717.559" fill="none" stroke="#000000" stroke-width="0.22356620000000002"/>
	<path d="M 118.746,720.68 L 122.1478,720.68 L 122.1478,723.23 L 118.746,723.23 L 118.746,720.68" fill="none" stroke="#000000" stroke-width="0.22356620000000002"/>
	<path d="M 122.996,720.9616 L 125.551,720.9616 L 125.551,724.363 L 122.996,724.363 L 122.996,720.9616" fill="none" stroke="#000000" stroke-width="0.22356620000000002"/>
	<path d="M 119.879,704.295 L 120.445,704.295 L 120.445,717.78656 L 119.879,717.78656 L 119.879,704.295" fill="none" stroke="#000000" stroke-width="0.22356620000000002"/>
	<path d="M 31.297,717.207 L 34.84,717.207 L 34.84,720.75 L 31.297,720.75 L 31.297,717.207" fill="none" stroke="#000000" stroke-width="0.22356620000000002"/>
	<path d="M 84.73,717.559 L 96.066,717.559 L 96.066,724.363 L 84.73,724.363 L 84.73,717.559" fill="none" stroke="#000000" stroke-width="0.22356620000000002"/>
	<path d="M 58.918,705.09 L 59.484,705.09 L 59.484,718.9218 L 58.918,718.9218 L 58.918,705.09" fill="none" stroke="#000000" stroke-width="0.22356620000000002"/>
	<path d="M 94.367,705.09 L 94.934,705.09 L 94.934,720.2806 L 94.367,720.2806 L 94.367,705.09" fill="none" stroke="#000000" stroke-width="0.22356620000000002"/>
	<path d="M 33.4228,718.695 L 59.484,718.695 L 59.484,719.262 L 33.4228,719.262 L 33.4228,718.695" fill="none" stroke="#000000" stroke-width="0.22356620000000002"/>
	<path d="M 91.5316,717.559 L 97.203,717.559 L 97.203,720.113 L 91.5316,720.113 L 91.5316,717.559" fill="none" stroke="#000000" stroke-width="0.22356620000000002"/>
	<path d="M 83.598,720.68 L 89.26440000000001,720.68 L 89.26440000000001,724.363 L 83.598,724.363 L 83.598,720.68" fill="none" stroke="#000000" stroke-width="0.22356620000000002"/>
	<path d="M 59.257600000000004,705.09 L 94.5938,705.09 L 94.5938,705.656 L 59.257600000000004,705.656 L 59.257600000000004,705.09" fill="none" stroke="#000000" stroke-width="0.22356620000000002"/>
	<path d="M 127.25,716.426 L 138.59,716.426 L 138.59,723.23 L 127.25,723.23 L 127.25,716.426" fill="none" stroke="#000000" stroke-width="0.22356620000000002"/>
	<path d="M 188.477,717.207 L 192.02,717.207 L 192.02,720.75 L 188.477,720.75 L 188.477,717.207" fill="none" stroke="#000000" stroke-width="0.22356620000000002"/>
	<path d="M 127.25,705.09 L 127.816,705.09 L 127.816,719.1476 L 127.25,719.1476 L 127.25,705.09" fill="none" stroke="#000000" stroke-width="0.22356620000000002"/>
	<path d="M 163.836,705.09 L 164.402,705.09 L 164.402,718.9218 L 163.836,718.9218 L 163.836,705.09" fill="none" stroke="#000000" stroke-width="0.22356620000000002"/>
	<path d="M 134.054,716.426 L 139.723,716.426 L 139.723,720.113 L 134.054,720.113 L 134.054,716.426" fill="none" stroke="#000000" stroke-width="0.22356620000000002"/>
	<path d="M 126.117,720.68 L 131.786,720.68 L 131.786,723.23 L 126.117,723.23 L 126.117,720.68" fill="none" stroke="#000000" stroke-width="0.22356620000000002"/>
	<path d="M 163.836,718.695 L 189.8942,718.695 L 189.8942,719.262 L 163.836,719.262 L 163.836,718.695" fill="none" stroke="#000000" stroke-width="0.22356620000000002"/>
	<path d="M 127.5896,705.09 L 164.0624,705.09 L 164.0624,705.656 L 127.5896,705.656 L 127.5896,705.09" fill="none" stroke="#000000" stroke-width="0.22356620000000002"/>
	<path d="M 36.613,708.066 L 40.156,708.066 L 40.156,708.632 L 36.613,708.632 L 36.613,708.066" fill="none" stroke="#000000" stroke-width="0.22356620000000002"/>
	<path d="M 43.699,708.066 L 47.242,708.066 L 47.242,708.632 L 43.699,708.632 L 43.699,708.066" fill="none" stroke="#000000" stroke-width="0.22356620000000002"/>
	<path d="M 176.078,708.066 L 179.621,708.066 L 179.621,708.632 L 176.078,708.632 L 176.078,708.066" fill="none" stroke="#000000" stroke-width="0.22356620000000002"/>
	<path d="M 183.164,708.066 L 186.707,708.066 L 186.707,708.632 L 183.164,708.632 L 183.164,708.066" fill="none" stroke="#000000" stroke-width="0.22356620000000002"/>
	<path d="M 10.039,710.121 L 13.578,710.121 L 13.578,713.664 L 10.039,713.664 L 10.039,710.121" fill="none" stroke="#000000" stroke-width="0.22356620000000002"/>
	<path d="M 17.125,710.121 L 20.668,710.121 L 20.668,713.664 L 17.125,713.664 L 17.125,710.121" fill="none" stroke="#000000" stroke-width="0.22356620000000002"/>
	<path d="M 24.211,710.121 L 27.754,710.121 L 27.754,713.664 L 24.211,713.664 L 24.211,710.121" fill="none" stroke="#000000" stroke-width="0.22356620000000002"/>
	<path d="M 19.250799999999998,711.609 L 25.6282,711.609 L 25.6282,712.176 L 19.250799999999998,712.176 L 19.250799999999998,711.609" fill="none" stroke="#000000" stroke-width="0.22356620000000002"/>
	<path d="M 41.645,710.121 L 42.211,710.121 L 42.211,713.664 L 41.645,713.664 L 41.645,710.121" fill="none" stroke="#000000" stroke-width="0.22356620000000002"/>
	<path d="M 181.109,710.121 L 181.675,710.121 L 181.675,713.664 L 181.109,713.664 L 181.109,710.121" fill="none" stroke="#000000" stroke-width="0.22356620000000002"/>
	<path d="M 195.566,710.121 L 199.109,710.121 L 199.109,713.664 L 195.566,713.664 L 195.566,710.121" fill="none" stroke="#000000" stroke-width="0.22356620000000002"/>
	<path d="M 202.652,710.121 L 206.195,710.121 L 206.195,713.664 L 202.652,713.664 L 202.652,710.121" fill="none" stroke="#000000" stroke-width="0.22356620000000002"/>
	<path d="M 197.6918,711.609 L 204.0692,711.609 L 204.0692,712.176 L 197.6918,712.176 L 197.6918,711.609" fill="none" stroke="#000000" stroke-width="0.22356620000000002"/>
	<path d="M 209.738,710.121 L 213.281,710.121 L 213.281,713.664 L 209.738,713.664 L 209.738,710.121" fill="none" stroke="#000000" stroke-width="0.22356620000000002"/>
	<path d="M 140.289,710.191 L 160.133,710.191 L 160.133,729.465 L 140.289,729.465 L 140.289,710.191" fill="none" stroke="#000000" stroke-width="0.22356620000000002"/>
	<path d="M 188.477,724.293 L 192.02,724.293 L 192.02,727.836 L 188.477,727.836 L 188.477,724.293" fill="none" stroke="#000000" stroke-width="0.22356620000000002"/>
	<path d="M 131.785,710.191 L 142.27339999999998,710.191 L 142.27339999999998,715.859 L 131.785,715.859 L 131.785,710.191" fill="none" stroke="#000000" stroke-width="0.22356620000000002"/>
	<path d="M 131.785,729.465 L 142.27339999999998,729.465 L 142.27339999999998,720.68 L 139.156,720.68 L 139.156,723.797 L 131.785,723.797 L 131.785,729.465" fill="none" stroke="#000000" stroke-width="0.22356620000000002"/>
	<path d="M 158.14860000000002,725.781 L 189.8942,725.781 L 189.8942,726.348 L 158.14860000000002,726.348 L 158.14860000000002,725.781" fill="none" stroke="#000000" stroke-width="0.22356620000000002"/>
	<path d="M 63.188,711.324 L 83.031,711.324 L 83.031,730.602 L 63.188,730.602 L 63.188,711.324" fill="none" stroke="#000000" stroke-width="0.22356620000000002"/>
	<path d="M 31.297,724.293 L 34.84,724.293 L 34.84,727.836 L 31.297,727.836 L 31.297,724.293" fill="none" stroke="#000000" stroke-width="0.22356620000000002"/>
	<path d="M 81.0467,724.93 L 91.535,724.93 L 91.535,730.602 L 81.0467,730.602 L 81.0467,724.93" fill="none" stroke="#000000" stroke-width="0.22356620000000002"/>
	<path d="M 81.0467,720.113 L 84.164,720.113 L 84.164,716.992 L 91.535,716.992 L 91.535,711.324 L 81.0467,711.324 L 81.0467,720.113" fill="none" stroke="#000000" stroke-width="0.22356620000000002"/>
	<path d="M 33.4228,725.781 L 65.1723,725.781 L 65.1723,726.348 L 33.4228,726.348 L 33.4228,725.781" fill="none" stroke="#000000" stroke-width="0.22356620000000002"/>
	<path d="M 24.211,724.293 L 27.754,724.293 L 27.754,727.836 L 24.211,727.836 L 24.211,724.293" fill="none" stroke="#000000" stroke-width="0.22356620000000002"/>
	<path d="M 105.141,724.93 L 110.809,724.93 L 110.809,730.602 L 105.141,730.602 L 105.141,724.93" fill="none" stroke="#000000" stroke-width="0.22356620000000002"/>
	<path d="M 25.699,729.324 L 46.18,729.324 L 46.18,729.891 L 25.699,729.891 L 25.699,729.324" fill="none" stroke="#000000" stroke-width="0.22356620000000002"/>
	<path d="M 105.141,723.797 L 107.691,723.797 L 107.691,727.1988 L 105.141,727.1988 L 105.141,723.797" fill="none" stroke="#000000" stroke-width="0.22356620000000002"/>
	<path d="M 108.5418,724.93 L 111.941,724.93 L 111.941,727.48 L 108.5418,727.48 L 108.5418,724.93" fill="none" stroke="#000000" stroke-width="0.22356620000000002"/>
	<path d="M 104.008,728.047 L 107.40820000000001,728.047 L 107.40820000000001,730.602 L 104.008,730.602 L 104.008,728.047" fill="none" stroke="#000000" stroke-width="0.22356620000000002"/>
	<path d="M 108.258,728.3331999999999 L 110.809,728.3331999999999 L 110.809,731.734 L 108.258,731.734 L 108.258,728.3331999999999" fill="none" stroke="#000000" stroke-width="0.22356620000000002"/>
	<path d="M 45.613,729.6641999999999 L 46.18,729.6641999999999 L 46.18,733.93 L 45.613,733.93 L 45.613,729.6641999999999" fill="none" stroke="#000000" stroke-width="0.22356620000000002"/>
	<path d="M 25.699,726.4188 L 26.266,726.4188 L 26.266,729.5508 L 25.699,729.5508 L 25.699,726.4188" fill="none" stroke="#000000" stroke-width="0.22356620000000002"/>
	<path d="M 92.809,730.035 L 105.36808,730.035 L 105.36808,730.602 L 92.809,730.602 L 92.809,730.035" fill="none" stroke="#000000" stroke-width="0.22356620000000002"/>
	<path d="M 45.9532,733.363 L 93.375,733.363 L 93.375,733.93 L 45.9532,733.93 L 45.9532,733.363" fill="none" stroke="#000000" stroke-width="0.22356620000000002"/>
	<path d="M 92.809,730.3752 L 93.375,730.3752 L 93.375,733.5898 L 92.809,733.5898 L 92.809,730.3752" fill="none" stroke="#000000" stroke-width="0.22356620000000002"/>
	<path d="M 195.566,724.293 L 199.109,724.293 L 199.109,727.836 L 195.566,727.836 L 195.566,724.293" fill="none" stroke="#000000" stroke-width="0.22356620000000002"/>
	<path d="M 112.512,724.93 L 118.18,724.93 L 118.18,730.602 L 112.512,730.602 L 112.512,724.93" fill="none" stroke="#000000" stroke-width="0.22356620000000002"/>
	<path d="M 177.141,729.324 L 197.621,729.324 L 197.621,729.891 L 177.141,729.891 L 177.141,729.324" fill="none" stroke="#000000" stroke-width="0.22356620000000002"/>
	<path d="M 130.227,732.23 L 177.707,732.23 L 177.707,732.797 L 130.227,732.797 L 130.227,732.23" fill="none" stroke="#000000" stroke-width="0.22356620000000002"/>
	<path d="M 112.512,723.797 L 115.063,723.797 L 115.063,727.1988 L 112.512,727.1988 L 112.512,723.797" fill="none" stroke="#000000" stroke-width="0.22356620000000002"/>
	<path d="M 115.9128,724.93 L 119.313,724.93 L 119.313,727.48 L 115.9128,727.48 L 115.9128,724.93" fill="none" stroke="#000000" stroke-width="0.22356620000000002"/>
	<path d="M 111.375,728.047 L 114.7792,728.047 L 114.7792,730.602 L 111.375,730.602 L 111.375,728.047" fill="none" stroke="#000000" stroke-width="0.22356620000000002"/>
	<path d="M 115.629,728.3331999999999 L 118.18,728.3331999999999 L 118.18,731.734 L 115.629,731.734 L 115.629,728.3331999999999" fill="none" stroke="#000000" stroke-width="0.22356620000000002"/>
	<path d="M 117.95292,726.914 L 130.793,726.914 L 130.793,727.48 L 117.95292,727.48 L 117.95292,726.914" fill="none" stroke="#000000" stroke-width="0.22356620000000002"/>
	<path d="M 197.055,726.4188 L 197.621,726.4188 L 197.621,729.5508 L 197.055,729.5508 L 197.055,726.4188" fill="none" stroke="#000000" stroke-width="0.22356620000000002"/>
	<path d="M 130.227,727.2536 L 130.793,727.2536 L 130.793,732.4568 L 130.227,732.4568 L 130.227,727.2536" fill="none" stroke="#000000" stroke-width="0.22356620000000002"/>
	<path d="M 177.141,729.6641999999999 L 177.707,729.6641999999999 L 177.707,732.4568 L 177.141,732.4568 L 177.141,729.6641999999999" fill="none" stroke="#000000" stroke-width="0.22356620000000002"/>
	<path d="M 31.297,731.379 L 34.84,731.379 L 34.84,734.922 L 31.297,734.922 L 31.297,731.379" fill="none" stroke="#000000" stroke-width="0.22356620000000002"/>
	<path d="M 105.141,732.301 L 110.809,732.301 L 110.809,737.969 L 105.141,737.969 L 105.141,732.301" fill="none" stroke="#000000" stroke-width="0.22356620000000002"/>
	<path d="M 44.477,736.41 L 94.934,736.41 L 94.934,736.977 L 44.477,736.977 L 44.477,736.41" fill="none" stroke="#000000" stroke-width="0.22356620000000002"/>
	<path d="M 105.141,731.168 L 107.691,731.168 L 107.691,734.5682 L 105.141,734.5682 L 105.141,731.168" fill="none" stroke="#000000" stroke-width="0.22356620000000002"/>
	<path d="M 33.4228,732.867 L 45.043,732.867 L 45.043,733.434 L 33.4228,733.434 L 33.4228,732.867" fill="none" stroke="#000000" stroke-width="0.22356620000000002"/>
	<path d="M 108.5418,732.301 L 111.941,732.301 L 111.941,734.852 L 108.5418,734.852 L 108.5418,732.301" fill="none" stroke="#000000" stroke-width="0.22356620000000002"/>
	<path d="M 104.008,735.418 L 107.40820000000001,735.418 L 107.40820000000001,737.969 L 104.008,737.969 L 104.008,735.418" fill="none" stroke="#000000" stroke-width="0.22356620000000002"/>
	<path d="M 108.258,735.7018 L 110.809,735.7018 L 110.809,739.105 L 108.258,739.105 L 108.258,735.7018" fill="none" stroke="#000000" stroke-width="0.22356620000000002"/>
	<path d="M 94.367,735.418 L 105.36808,735.418 L 105.36808,735.988 L 94.367,735.988 L 94.367,735.418" fill="none" stroke="#000000" stroke-width="0.22356620000000002"/>
	<path d="M 94.367,735.76 L 94.934,735.76 L 94.934,736.6368 L 94.367,736.6368 L 94.367,735.76" fill="none" stroke="#000000" stroke-width="0.22356620000000002"/>
	<path d="M 44.477,733.2072 L 45.043,733.2072 L 45.043,736.6368 L 44.477,736.6368 L 44.477,733.2072" fill="none" stroke="#000000" stroke-width="0.22356620000000002"/>
	<path d="M 188.477,731.379 L 192.02,731.379 L 192.02,734.922 L 188.477,734.922 L 188.477,731.379" fill="none" stroke="#000000" stroke-width="0.22356620000000002"/>
	<path d="M 112.512,732.301 L 118.18,732.301 L 118.18,737.969 L 112.512,737.969 L 112.512,732.301" fill="none" stroke="#000000" stroke-width="0.22356620000000002"/>
	<path d="M 128.949,734.285 L 129.52,734.285 L 129.52,735.844 L 128.949,735.844 L 128.949,734.285" fill="none" stroke="#000000" stroke-width="0.22356620000000002"/>
	<path d="M 112.512,731.168 L 115.063,731.168 L 115.063,734.5682 L 112.512,734.5682 L 112.512,731.168" fill="none" stroke="#000000" stroke-width="0.22356620000000002"/>
	<path d="M 178.273,732.867 L 189.8942,732.867 L 189.8942,733.434 L 178.273,733.434 L 178.273,732.867" fill="none" stroke="#000000" stroke-width="0.22356620000000002"/>
	<path d="M 115.9128,732.301 L 119.313,732.301 L 119.313,734.852 L 115.9128,734.852 L 115.9128,732.301" fill="none" stroke="#000000" stroke-width="0.22356620000000002"/>
	<path d="M 111.375,735.418 L 114.7792,735.418 L 114.7792,737.969 L 111.375,737.969 L 111.375,735.418" fill="none" stroke="#000000" stroke-width="0.22356620000000002"/>
	<path d="M 115.629,735.7018 L 118.18,735.7018 L 118.18,739.105 L 115.629,739.105 L 115.629,735.7018" fill="none" stroke="#000000" stroke-width="0.22356620000000002"/>
	<path d="M 129.29160000000002,735.277 L 178.84,735.277 L 178.84,735.844 L 129.29160000000002,735.844 L 129.29160000000002,735.277" fill="none" stroke="#000000" stroke-width="0.22356620000000002"/>
	<path d="M 178.273,733.2072 L 178.84,733.2072 L 178.84,735.5038000000001 L 178.273,735.5038000000001 L 178.273,733.2072" fill="none" stroke="#000000" stroke-width="0.22356620000000002"/>
	<path d="M 117.95292,734.285 L 129.1774,734.285 L 129.1774,734.852 L 117.95292,734.852 L 117.95292,734.285" fill="none" stroke="#000000" stroke-width="0.22356620000000002"/>
	<path d="M 24.211,731.379 L 27.754,731.379 L 27.754,734.922 L 24.211,734.922 L 24.211,731.379" fill="none" stroke="#000000" stroke-width="0.22356620000000002"/>
	<path d="M 25.699,736.41 L 43.91,736.41 L 43.91,736.977 L 25.699,736.977 L 25.699,736.41" fill="none" stroke="#000000" stroke-width="0.22356620000000002"/>
	<path d="M 95.926,736.977 L 102.445,736.977 L 102.445,737.547 L 95.926,737.547 L 95.926,736.977" fill="none" stroke="#000000" stroke-width="0.22356620000000002"/>
	<path d="M 105.141,739.672 L 110.809,739.672 L 110.809,745.34 L 105.141,745.34 L 105.141,739.672" fill="none" stroke="#000000" stroke-width="0.22356620000000002"/>
	<path d="M 25.699,733.5048 L 26.266,733.5048 L 26.266,736.6368 L 25.699,736.6368 L 25.699,733.5048" fill="none" stroke="#000000" stroke-width="0.22356620000000002"/>
	<path d="M 95.926,737.319 L 96.496,737.319 L 96.496,740.023 L 95.926,740.023 L 95.926,737.319" fill="none" stroke="#000000" stroke-width="0.22356620000000002"/>
	<path d="M 101.879,738.535 L 106.161,738.535 L 106.161,739.105 L 101.879,739.105 L 101.879,738.535" fill="none" stroke="#000000" stroke-width="0.22356620000000002"/>
	<path d="M 105.141,738.535 L 107.691,738.535 L 107.691,741.9392 L 105.141,741.9392 L 105.141,738.535" fill="none" stroke="#000000" stroke-width="0.22356620000000002"/>
	<path d="M 43.344,736.7502 L 43.91,736.7502 L 43.91,739.6834 L 43.344,739.6834 L 43.344,736.7502" fill="none" stroke="#000000" stroke-width="0.22356620000000002"/>
	<path d="M 43.344,739.457 L 96.154,739.457 L 96.154,740.023 L 43.344,740.023 L 43.344,739.457" fill="none" stroke="#000000" stroke-width="0.22356620000000002"/>
	<path d="M 108.5418,739.672 L 111.941,739.672 L 111.941,742.223 L 108.5418,742.223 L 108.5418,739.672" fill="none" stroke="#000000" stroke-width="0.22356620000000002"/>
	<path d="M 104.008,742.789 L 107.40820000000001,742.789 L 107.40820000000001,745.34 L 104.008,745.34 L 104.008,742.789" fill="none" stroke="#000000" stroke-width="0.22356620000000002"/>
	<path d="M 108.258,743.0728 L 110.809,743.0728 L 110.809,746.473 L 108.258,746.473 L 108.258,743.0728" fill="none" stroke="#000000" stroke-width="0.22356620000000002"/>
	<path d="M 101.879,737.319 L 102.445,737.319 L 102.445,738.763 L 101.879,738.763 L 101.879,737.319" fill="none" stroke="#000000" stroke-width="0.22356620000000002"/>
	<path d="M 195.566,731.379 L 199.109,731.379 L 199.109,734.922 L 195.566,734.922 L 195.566,731.379" fill="none" stroke="#000000" stroke-width="0.22356620000000002"/>
	<path d="M 118.746,736.41 L 128.242,736.41 L 128.242,736.977 L 118.746,736.977 L 118.746,736.41" fill="none" stroke="#000000" stroke-width="0.22356620000000002"/>
	<path d="M 179.406,736.41 L 197.621,736.41 L 197.621,736.977 L 179.406,736.977 L 179.406,736.41" fill="none" stroke="#000000" stroke-width="0.22356620000000002"/>
	<path d="M 127.676,738.324 L 179.973,738.324 L 179.973,738.891 L 127.676,738.891 L 127.676,738.324" fill="none" stroke="#000000" stroke-width="0.22356620000000002"/>
	<path d="M 112.512,739.672 L 118.18,739.672 L 118.18,745.34 L 112.512,745.34 L 112.512,739.672" fill="none" stroke="#000000" stroke-width="0.22356620000000002"/>
	<path d="M 197.055,733.5048 L 197.621,733.5048 L 197.621,736.6368 L 197.055,736.6368 L 197.055,733.5048" fill="none" stroke="#000000" stroke-width="0.22356620000000002"/>
	<path d="M 127.676,736.7502 L 128.242,736.7502 L 128.242,738.5508 L 127.676,738.5508 L 127.676,736.7502" fill="none" stroke="#000000" stroke-width="0.22356620000000002"/>
	<path d="M 179.406,736.7502 L 179.973,736.7502 L 179.973,738.5508 L 179.406,738.5508 L 179.406,736.7502" fill="none" stroke="#000000" stroke-width="0.22356620000000002"/>
	<path d="M 112.512,738.535 L 115.063,738.535 L 115.063,741.9392 L 112.512,741.9392 L 112.512,738.535" fill="none" stroke="#000000" stroke-width="0.22356620000000002"/>
	<path d="M 115.9128,739.672 L 119.313,739.672 L 119.313,742.223 L 115.9128,742.223 L 115.9128,739.672" fill="none" stroke="#000000" stroke-width="0.22356620000000002"/>
	<path d="M 111.375,742.789 L 114.7792,742.789 L 114.7792,745.34 L 111.375,745.34 L 111.375,742.789" fill="none" stroke="#000000" stroke-width="0.22356620000000002"/>
	<path d="M 115.629,743.0728 L 118.18,743.0728 L 118.18,746.473 L 115.629,746.473 L 115.629,743.0728" fill="none" stroke="#000000" stroke-width="0.22356620000000002"/>
	<path d="M 118.746,736.7502 L 119.313,736.7502 L 119.313,740.6924 L 118.746,740.6924 L 118.746,736.7502" fill="none" stroke="#000000" stroke-width="0.22356620000000002"/>
	<path d="M 24.211,738.465 L 27.754,738.465 L 27.754,742.012 L 24.211,742.012 L 24.211,738.465" fill="none" stroke="#000000" stroke-width="0.22356620000000002"/>
	<path d="M 97.77,747.039 L 103.441,747.039 L 103.441,752.711 L 97.77,752.711 L 97.77,747.039" fill="none" stroke="#000000" stroke-width="0.22356620000000002"/>
	<path d="M 25.699,740.5932 L 26.266,740.5932 L 26.266,744.066 L 25.699,744.066 L 25.699,740.5932" fill="none" stroke="#000000" stroke-width="0.22356620000000002"/>
	<path d="M 41.078,743.5 L 41.645,743.5 L 41.645,750.3868 L 41.078,750.3868 L 41.078,743.5" fill="none" stroke="#000000" stroke-width="0.22356620000000002"/>
	<path d="M 97.77,745.906 L 100.32,745.906 L 100.32,749.3078 L 97.77,749.3078 L 97.77,745.906" fill="none" stroke="#000000" stroke-width="0.22356620000000002"/>
	<path d="M 101.1726,747.039 L 104.574,747.039 L 104.574,749.594 L 101.1726,749.594 L 101.1726,747.039" fill="none" stroke="#000000" stroke-width="0.22356620000000002"/>
	<path d="M 96.637,750.16 L 100.0384,750.16 L 100.0384,752.711 L 96.637,752.711 L 96.637,750.16" fill="none" stroke="#000000" stroke-width="0.22356620000000002"/>
	<path d="M 100.887,750.4422 L 103.441,750.4422 L 103.441,753.844 L 100.887,753.844 L 100.887,750.4422" fill="none" stroke="#000000" stroke-width="0.22356620000000002"/>
	<path d="M 41.078,750.16 L 97.99756,750.16 L 97.99756,750.727 L 41.078,750.727 L 41.078,750.16" fill="none" stroke="#000000" stroke-width="0.22356620000000002"/>
	<path d="M 26.0392,743.5 L 41.3048,743.5 L 41.3048,744.066 L 26.0392,744.066 L 26.0392,743.5" fill="none" stroke="#000000" stroke-width="0.22356620000000002"/>
	<path d="M 31.297,738.465 L 34.84,738.465 L 34.84,742.012 L 31.297,742.012 L 31.297,738.465" fill="none" stroke="#000000" stroke-width="0.22356620000000002"/>
	<path d="M 97.77,739.672 L 103.441,739.672 L 103.441,745.34 L 97.77,745.34 L 97.77,739.672" fill="none" stroke="#000000" stroke-width="0.22356620000000002"/>
	<path d="M 33.4228,739.953 L 42.777,739.953 L 42.777,740.523 L 33.4228,740.523 L 33.4228,739.953" fill="none" stroke="#000000" stroke-width="0.22356620000000002"/>
	<path d="M 97.77,738.535 L 100.32,738.535 L 100.32,741.9392 L 97.77,741.9392 L 97.77,738.535" fill="none" stroke="#000000" stroke-width="0.22356620000000002"/>
	<path d="M 101.1726,739.672 L 104.574,739.672 L 104.574,742.223 L 101.1726,742.223 L 101.1726,739.672" fill="none" stroke="#000000" stroke-width="0.22356620000000002"/>
	<path d="M 96.637,742.789 L 100.0384,742.789 L 100.0384,745.34 L 96.637,745.34 L 96.637,742.789" fill="none" stroke="#000000" stroke-width="0.22356620000000002"/>
	<path d="M 100.887,743.0728 L 103.441,743.0728 L 103.441,746.473 L 100.887,746.473 L 100.887,743.0728" fill="none" stroke="#000000" stroke-width="0.22356620000000002"/>
	<path d="M 42.211,742.789 L 97.99756,742.789 L 97.99756,743.355 L 42.211,743.355 L 42.211,742.789" fill="none" stroke="#000000" stroke-width="0.22356620000000002"/>
	<path d="M 42.211,740.295 L 42.777,740.295 L 42.777,743.0154 L 42.211,743.0154 L 42.211,740.295" fill="none" stroke="#000000" stroke-width="0.22356620000000002"/>
	<path d="M 188.477,738.465 L 192.02,738.465 L 192.02,742.012 L 188.477,742.012 L 188.477,738.465" fill="none" stroke="#000000" stroke-width="0.22356620000000002"/>
	<path d="M 119.879,739.672 L 125.551,739.672 L 125.551,745.34 L 119.879,745.34 L 119.879,739.672" fill="none" stroke="#000000" stroke-width="0.22356620000000002"/>
	<path d="M 180.543,739.953 L 189.8942,739.953 L 189.8942,740.523 L 180.543,740.523 L 180.543,739.953" fill="none" stroke="#000000" stroke-width="0.22356620000000002"/>
	<path d="M 119.879,738.535 L 122.43,738.535 L 122.43,741.9392 L 119.879,741.9392 L 119.879,738.535" fill="none" stroke="#000000" stroke-width="0.22356620000000002"/>
	<path d="M 123.2822,739.672 L 126.684,739.672 L 126.684,742.223 L 123.2822,742.223 L 123.2822,739.672" fill="none" stroke="#000000" stroke-width="0.22356620000000002"/>
	<path d="M 118.746,742.789 L 122.1478,742.789 L 122.1478,745.34 L 118.746,745.34 L 118.746,742.789" fill="none" stroke="#000000" stroke-width="0.22356620000000002"/>
	<path d="M 122.996,743.0728 L 125.551,743.0728 L 125.551,746.473 L 122.996,746.473 L 122.996,743.0728" fill="none" stroke="#000000" stroke-width="0.22356620000000002"/>
	<path d="M 125.32328,741.656 L 181.109,741.656 L 181.109,742.223 L 125.32328,742.223 L 125.32328,741.656" fill="none" stroke="#000000" stroke-width="0.22356620000000002"/>
	<path d="M 180.543,740.295 L 181.109,740.295 L 181.109,741.8828 L 180.543,741.8828 L 180.543,740.295" fill="none" stroke="#000000" stroke-width="0.22356620000000002"/>
	<path d="M 195.566,738.465 L 199.109,738.465 L 199.109,742.012 L 195.566,742.012 L 195.566,738.465" fill="none" stroke="#000000" stroke-width="0.22356620000000002"/>
	<path d="M 181.676,743.5 L 197.621,743.5 L 197.621,744.066 L 181.676,744.066 L 181.676,743.5" fill="none" stroke="#000000" stroke-width="0.22356620000000002"/>
	<path d="M 119.879,747.039 L 125.551,747.039 L 125.551,752.711 L 119.879,752.711 L 119.879,747.039" fill="none" stroke="#000000" stroke-width="0.22356620000000002"/>
	<path d="M 197.055,740.5932 L 197.621,740.5932 L 197.621,743.7264 L 197.055,743.7264 L 197.055,740.5932" fill="none" stroke="#000000" stroke-width="0.22356620000000002"/>
	<path d="M 119.879,745.906 L 122.43,745.906 L 122.43,749.3078 L 119.879,749.3078 L 119.879,745.906" fill="none" stroke="#000000" stroke-width="0.22356620000000002"/>
	<path d="M 123.2822,747.039 L 126.684,747.039 L 126.684,749.594 L 123.2822,749.594 L 123.2822,747.039" fill="none" stroke="#000000" stroke-width="0.22356620000000002"/>
	<path d="M 118.746,750.16 L 122.1478,750.16 L 122.1478,752.711 L 118.746,752.711 L 118.746,750.16" fill="none" stroke="#000000" stroke-width="0.22356620000000002"/>
	<path d="M 122.996,750.4422 L 125.551,750.4422 L 125.551,753.844 L 122.996,753.844 L 122.996,750.4422" fill="none" stroke="#000000" stroke-width="0.22356620000000002"/>
	<path d="M 181.676,743.8396 L 182.242,743.8396 L 182.242,749.2514 L 181.676,749.2514 L 181.676,743.8396" fill="none" stroke="#000000" stroke-width="0.22356620000000002"/>
	<path d="M 125.32328,749.023 L 182.242,749.023 L 182.242,749.594 L 125.32328,749.594 L 125.32328,749.023" fill="none" stroke="#000000" stroke-width="0.22356620000000002"/>
	<path d="M 24.211,745.555 L 27.754,745.555 L 27.754,749.094 L 24.211,749.094 L 24.211,745.555" fill="none" stroke="#000000" stroke-width="0.22356620000000002"/>
	<path d="M 25.699,750.582 L 39.375,750.582 L 39.375,751.152 L 25.699,751.152 L 25.699,750.582" fill="none" stroke="#000000" stroke-width="0.22356620000000002"/>
	<path d="M 105.141,754.41 L 110.809,754.41 L 110.809,760.082 L 105.141,760.082 L 105.141,754.41" fill="none" stroke="#000000" stroke-width="0.22356620000000002"/>
	<path d="M 25.699,747.6784 L 26.266,747.6784 L 26.266,750.8100000000001 L 25.699,750.8100000000001 L 25.699,747.6784" fill="none" stroke="#000000" stroke-width="0.22356620000000002"/>
	<path d="M 105.141,753.277 L 107.691,753.277 L 107.691,756.6788 L 105.141,756.6788 L 105.141,753.277" fill="none" stroke="#000000" stroke-width="0.22356620000000002"/>
	<path d="M 108.5418,754.41 L 111.941,754.41 L 111.941,756.961 L 108.5418,756.961 L 108.5418,754.41" fill="none" stroke="#000000" stroke-width="0.22356620000000002"/>
	<path d="M 104.008,757.527 L 107.40820000000001,757.527 L 107.40820000000001,760.082 L 104.008,760.082 L 104.008,757.527" fill="none" stroke="#000000" stroke-width="0.22356620000000002"/>
	<path d="M 108.258,757.8131999999999 L 110.809,757.8131999999999 L 110.809,761.215 L 108.258,761.215 L 108.258,757.8131999999999" fill="none" stroke="#000000" stroke-width="0.22356620000000002"/>
	<path d="M 38.809,750.924 L 39.375,750.924 L 39.375,757.7538000000001 L 38.809,757.7538000000001 L 38.809,750.924" fill="none" stroke="#000000" stroke-width="0.22356620000000002"/>
	<path d="M 38.809,757.527 L 105.36808,757.527 L 105.36808,758.094 L 38.809,758.094 L 38.809,757.527" fill="none" stroke="#000000" stroke-width="0.22356620000000002"/>
	<path d="M 31.297,745.555 L 34.84,745.555 L 34.84,749.094 L 31.297,749.094 L 31.297,745.555" fill="none" stroke="#000000" stroke-width="0.22356620000000002"/>
	<path d="M 105.141,747.039 L 110.809,747.039 L 110.809,752.711 L 105.141,752.711 L 105.141,747.039" fill="none" stroke="#000000" stroke-width="0.22356620000000002"/>
	<path d="M 39.941,755.402 L 104.574,755.402 L 104.574,755.969 L 39.941,755.969 L 39.941,755.402" fill="none" stroke="#000000" stroke-width="0.22356620000000002"/>
	<path d="M 33.4228,747.039 L 40.508,747.039 L 40.508,747.609 L 33.4228,747.609 L 33.4228,747.039" fill="none" stroke="#000000" stroke-width="0.22356620000000002"/>
	<path d="M 105.141,745.906 L 107.691,745.906 L 107.691,749.3078 L 105.141,749.3078 L 105.141,745.906" fill="none" stroke="#000000" stroke-width="0.22356620000000002"/>
	<path d="M 108.5418,747.039 L 111.941,747.039 L 111.941,749.594 L 108.5418,749.594 L 108.5418,747.039" fill="none" stroke="#000000" stroke-width="0.22356620000000002"/>
	<path d="M 104.008,750.16 L 107.40820000000001,750.16 L 107.40820000000001,752.711 L 104.008,752.711 L 104.008,750.16" fill="none" stroke="#000000" stroke-width="0.22356620000000002"/>
	<path d="M 108.258,750.4422 L 110.809,750.4422 L 110.809,753.844 L 108.258,753.844 L 108.258,750.4422" fill="none" stroke="#000000" stroke-width="0.22356620000000002"/>
	<path d="M 39.941,747.381 L 40.508,747.381 L 40.508,755.6288000000001 L 39.941,755.6288000000001 L 39.941,747.381" fill="none" stroke="#000000" stroke-width="0.22356620000000002"/>
	<path d="M 104.008,751.6906 L 104.574,751.6906 L 104.574,755.6288000000001 L 104.008,755.6288000000001 L 104.008,751.6906" fill="none" stroke="#000000" stroke-width="0.22356620000000002"/>
	<path d="M 188.477,745.555 L 192.02,745.555 L 192.02,749.094 L 188.477,749.094 L 188.477,745.555" fill="none" stroke="#000000" stroke-width="0.22356620000000002"/>
	<path d="M 112.512,747.039 L 118.18,747.039 L 118.18,752.711 L 112.512,752.711 L 112.512,747.039" fill="none" stroke="#000000" stroke-width="0.22356620000000002"/>
	<path d="M 120.871,753.277 L 121.441,753.277 L 121.441,755.402 L 120.871,755.402 L 120.871,753.277" fill="none" stroke="#000000" stroke-width="0.22356620000000002"/>
	<path d="M 182.809,747.039 L 189.8942,747.039 L 189.8942,747.609 L 182.809,747.609 L 182.809,747.039" fill="none" stroke="#000000" stroke-width="0.22356620000000002"/>
	<path d="M 112.512,745.906 L 115.063,745.906 L 115.063,749.3078 L 112.512,749.3078 L 112.512,745.906" fill="none" stroke="#000000" stroke-width="0.22356620000000002"/>
	<path d="M 115.9128,747.039 L 119.313,747.039 L 119.313,749.594 L 115.9128,749.594 L 115.9128,747.039" fill="none" stroke="#000000" stroke-width="0.22356620000000002"/>
	<path d="M 111.375,750.16 L 114.7792,750.16 L 114.7792,752.711 L 111.375,752.711 L 111.375,750.16" fill="none" stroke="#000000" stroke-width="0.22356620000000002"/>
	<path d="M 115.629,750.4422 L 118.18,750.4422 L 118.18,753.844 L 115.629,753.844 L 115.629,750.4422" fill="none" stroke="#000000" stroke-width="0.22356620000000002"/>
	<path d="M 121.213,754.836 L 183.375,754.836 L 183.375,755.402 L 121.213,755.402 L 121.213,754.836" fill="none" stroke="#000000" stroke-width="0.22356620000000002"/>
	<path d="M 182.809,747.381 L 183.375,747.381 L 183.375,755.0624 L 182.809,755.0624 L 182.809,747.381" fill="none" stroke="#000000" stroke-width="0.22356620000000002"/>
	<path d="M 117.15960000000001,753.277 L 121.099,753.277 L 121.099,753.844 L 117.15960000000001,753.844 L 117.15960000000001,753.277" fill="none" stroke="#000000" stroke-width="0.22356620000000002"/>
	<path d="M 195.566,745.555 L 199.109,745.555 L 199.109,749.094 L 195.566,749.094 L 195.566,745.555" fill="none" stroke="#000000" stroke-width="0.22356620000000002"/>
	<path d="M 183.941,750.582 L 197.621,750.582 L 197.621,751.152 L 183.941,751.152 L 183.941,750.582" fill="none" stroke="#000000" stroke-width="0.22356620000000002"/>
	<path d="M 112.512,754.41 L 118.18,754.41 L 118.18,760.082 L 112.512,760.082 L 112.512,754.41" fill="none" stroke="#000000" stroke-width="0.22356620000000002"/>
	<path d="M 183.941,750.924 L 184.508,750.924 L 184.508,756.961 L 183.941,756.961 L 183.941,750.924" fill="none" stroke="#000000" stroke-width="0.22356620000000002"/>
	<path d="M 197.055,747.6784 L 197.621,747.6784 L 197.621,750.8100000000001 L 197.055,750.8100000000001 L 197.055,747.6784" fill="none" stroke="#000000" stroke-width="0.22356620000000002"/>
	<path d="M 112.512,753.277 L 115.063,753.277 L 115.063,756.6788 L 112.512,756.6788 L 112.512,753.277" fill="none" stroke="#000000" stroke-width="0.22356620000000002"/>
	<path d="M 115.9128,754.41 L 119.313,754.41 L 119.313,756.961 L 115.9128,756.961 L 115.9128,754.41" fill="none" stroke="#000000" stroke-width="0.22356620000000002"/>
	<path d="M 111.375,757.527 L 114.7792,757.527 L 114.7792,760.082 L 111.375,760.082 L 111.375,757.527" fill="none" stroke="#000000" stroke-width="0.22356620000000002"/>
	<path d="M 115.629,757.8131999999999 L 118.18,757.8131999999999 L 118.18,761.215 L 115.629,761.215 L 115.629,757.8131999999999" fill="none" stroke="#000000" stroke-width="0.22356620000000002"/>
	<path d="M 117.95292,756.395 L 184.1678,756.395 L 184.1678,756.961 L 117.95292,756.961 L 117.95292,756.395" fill="none" stroke="#000000" stroke-width="0.22356620000000002"/>
	<path d="M 24.211,752.641 L 27.754,752.641 L 27.754,756.184 L 24.211,756.184 L 24.211,752.641" fill="none" stroke="#000000" stroke-width="0.22356620000000002"/>
	<path d="M 97.77,761.781 L 103.441,761.781 L 103.441,767.449 L 97.77,767.449 L 97.77,761.781" fill="none" stroke="#000000" stroke-width="0.22356620000000002"/>
	<path d="M 25.699,754.7668 L 26.266,754.7668 L 26.266,758.238 L 25.699,758.238 L 25.699,754.7668" fill="none" stroke="#000000" stroke-width="0.22356620000000002"/>
	<path d="M 26.0392,757.672 L 37.109,757.672 L 37.109,758.238 L 26.0392,758.238 L 26.0392,757.672" fill="none" stroke="#000000" stroke-width="0.22356620000000002"/>
	<path d="M 97.77,760.648 L 100.32,760.648 L 100.32,764.0482 L 97.77,764.0482 L 97.77,760.648" fill="none" stroke="#000000" stroke-width="0.22356620000000002"/>
	<path d="M 101.1726,761.781 L 104.574,761.781 L 104.574,764.332 L 101.1726,764.332 L 101.1726,761.781" fill="none" stroke="#000000" stroke-width="0.22356620000000002"/>
	<path d="M 96.637,764.898 L 100.0384,764.898 L 100.0384,767.449 L 96.637,767.449 L 96.637,764.898" fill="none" stroke="#000000" stroke-width="0.22356620000000002"/>
	<path d="M 100.887,765.1818 L 103.441,765.1818 L 103.441,768.582 L 100.887,768.582 L 100.887,765.1818" fill="none" stroke="#000000" stroke-width="0.22356620000000002"/>
	<path d="M 36.543,758.0116 L 37.109,758.0116 L 37.109,765.1264 L 36.543,765.1264 L 36.543,758.0116" fill="none" stroke="#000000" stroke-width="0.22356620000000002"/>
	<path d="M 36.543,764.898 L 97.99756,764.898 L 97.99756,765.469 L 36.543,765.469 L 36.543,764.898" fill="none" stroke="#000000" stroke-width="0.22356620000000002"/>
	<path d="M 31.297,752.641 L 34.84,752.641 L 34.84,756.184 L 31.297,756.184 L 31.297,752.641" fill="none" stroke="#000000" stroke-width="0.22356620000000002"/>
	<path d="M 105.141,761.781 L 110.809,761.781 L 110.809,767.449 L 105.141,767.449 L 105.141,761.781" fill="none" stroke="#000000" stroke-width="0.22356620000000002"/>
	<path d="M 33.4228,754.129 L 38.242,754.129 L 38.242,754.695 L 33.4228,754.695 L 33.4228,754.129" fill="none" stroke="#000000" stroke-width="0.22356620000000002"/>
	<path d="M 37.676,754.4686 L 38.242,754.4686 L 38.242,759.656 L 37.676,759.656 L 37.676,754.4686" fill="none" stroke="#000000" stroke-width="0.22356620000000002"/>
	<path d="M 101.879,759.09 L 102.445,759.09 L 102.445,760.8748 L 101.879,760.8748 L 101.879,759.09" fill="none" stroke="#000000" stroke-width="0.22356620000000002"/>
	<path d="M 101.879,760.648 L 106.161,760.648 L 106.161,761.215 L 101.879,761.215 L 101.879,760.648" fill="none" stroke="#000000" stroke-width="0.22356620000000002"/>
	<path d="M 105.141,760.648 L 107.691,760.648 L 107.691,764.0482 L 105.141,764.0482 L 105.141,760.648" fill="none" stroke="#000000" stroke-width="0.22356620000000002"/>
	<path d="M 108.5418,761.781 L 111.941,761.781 L 111.941,764.332 L 108.5418,764.332 L 108.5418,761.781" fill="none" stroke="#000000" stroke-width="0.22356620000000002"/>
	<path d="M 104.008,764.898 L 107.40820000000001,764.898 L 107.40820000000001,767.449 L 104.008,767.449 L 104.008,764.898" fill="none" stroke="#000000" stroke-width="0.22356620000000002"/>
	<path d="M 108.258,765.1818 L 110.809,765.1818 L 110.809,768.582 L 108.258,768.582 L 108.258,765.1818" fill="none" stroke="#000000" stroke-width="0.22356620000000002"/>
	<path d="M 38.0156,759.09 L 102.1054,759.09 L 102.1054,759.656 L 38.0156,759.656 L 38.0156,759.09" fill="none" stroke="#000000" stroke-width="0.22356620000000002"/>
	<path d="M 188.477,752.641 L 192.02,752.641 L 192.02,756.184 L 188.477,756.184 L 188.477,752.641" fill="none" stroke="#000000" stroke-width="0.22356620000000002"/>
	<path d="M 118.746,757.953 L 185.645,757.953 L 185.645,758.523 L 118.746,758.523 L 118.746,757.953" fill="none" stroke="#000000" stroke-width="0.22356620000000002"/>
	<path d="M 112.512,761.781 L 118.18,761.781 L 118.18,767.449 L 112.512,767.449 L 112.512,761.781" fill="none" stroke="#000000" stroke-width="0.22356620000000002"/>
	<path d="M 185.078,754.129 L 185.645,754.129 L 185.645,758.181 L 185.078,758.181 L 185.078,754.129" fill="none" stroke="#000000" stroke-width="0.22356620000000002"/>
	<path d="M 112.512,760.648 L 115.063,760.648 L 115.063,764.0482 L 112.512,764.0482 L 112.512,760.648" fill="none" stroke="#000000" stroke-width="0.22356620000000002"/>
	<path d="M 115.9128,761.781 L 119.313,761.781 L 119.313,764.332 L 115.9128,764.332 L 115.9128,761.781" fill="none" stroke="#000000" stroke-width="0.22356620000000002"/>
	<path d="M 111.375,764.898 L 114.7792,764.898 L 114.7792,767.449 L 111.375,767.449 L 111.375,764.898" fill="none" stroke="#000000" stroke-width="0.22356620000000002"/>
	<path d="M 115.629,765.1818 L 118.18,765.1818 L 118.18,768.582 L 115.629,768.582 L 115.629,765.1818" fill="none" stroke="#000000" stroke-width="0.22356620000000002"/>
	<path d="M 185.4182,754.129 L 189.8942,754.129 L 189.8942,754.695 L 185.4182,754.695 L 185.4182,754.129" fill="none" stroke="#000000" stroke-width="0.22356620000000002"/>
	<path d="M 118.746,758.295 L 119.313,758.295 L 119.313,762.8014 L 118.746,762.8014 L 118.746,758.295" fill="none" stroke="#000000" stroke-width="0.22356620000000002"/>
	<path d="M 195.566,752.641 L 199.109,752.641 L 199.109,756.184 L 195.566,756.184 L 195.566,752.641" fill="none" stroke="#000000" stroke-width="0.22356620000000002"/>
	<path d="M 186.211,757.672 L 197.621,757.672 L 197.621,758.238 L 186.211,758.238 L 186.211,757.672" fill="none" stroke="#000000" stroke-width="0.22356620000000002"/>
	<path d="M 119.879,761.781 L 125.551,761.781 L 125.551,767.449 L 119.879,767.449 L 119.879,761.781" fill="none" stroke="#000000" stroke-width="0.22356620000000002"/>
	<path d="M 197.055,754.7668 L 197.621,754.7668 L 197.621,757.8984 L 197.055,757.8984 L 197.055,754.7668" fill="none" stroke="#000000" stroke-width="0.22356620000000002"/>
	<path d="M 119.879,760.648 L 122.43,760.648 L 122.43,764.0482 L 119.879,764.0482 L 119.879,760.648" fill="none" stroke="#000000" stroke-width="0.22356620000000002"/>
	<path d="M 123.2822,761.781 L 126.684,761.781 L 126.684,764.332 L 123.2822,764.332 L 123.2822,761.781" fill="none" stroke="#000000" stroke-width="0.22356620000000002"/>
	<path d="M 118.746,764.898 L 122.1478,764.898 L 122.1478,767.449 L 118.746,767.449 L 118.746,764.898" fill="none" stroke="#000000" stroke-width="0.22356620000000002"/>
	<path d="M 122.996,765.1818 L 125.551,765.1818 L 125.551,768.582 L 122.996,768.582 L 122.996,765.1818" fill="none" stroke="#000000" stroke-width="0.22356620000000002"/>
	<path d="M 186.211,758.0116 L 186.777,758.0116 L 186.777,763.9924 L 186.211,763.9924 L 186.211,758.0116" fill="none" stroke="#000000" stroke-width="0.22356620000000002"/>
	<path d="M 125.32328,763.766 L 186.777,763.766 L 186.777,764.332 L 125.32328,764.332 L 125.32328,763.766" fill="none" stroke="#000000" stroke-width="0.22356620000000002"/>
	<path d="M 31.297,759.727 L 34.84,759.727 L 34.84,763.27 L 31.297,763.27 L 31.297,759.727" fill="none" stroke="#000000" stroke-width="0.22356620000000002"/>
	<path d="M 35.406,761.215 L 35.973,761.215 L 35.973,772.836 L 35.406,772.836 L 35.406,761.215" fill="none" stroke="#000000" stroke-width="0.22356620000000002"/>
	<path d="M 97.77,769.152 L 103.441,769.152 L 103.441,774.82 L 97.77,774.82 L 97.77,769.152" fill="none" stroke="#000000" stroke-width="0.22356620000000002"/>
	<path d="M 33.4228,761.215 L 35.632799999999996,761.215 L 35.632799999999996,761.781 L 33.4228,761.781 L 33.4228,761.215" fill="none" stroke="#000000" stroke-width="0.22356620000000002"/>
	<path d="M 97.77,768.016 L 100.32,768.016 L 100.32,771.4192 L 97.77,771.4192 L 97.77,768.016" fill="none" stroke="#000000" stroke-width="0.22356620000000002"/>
	<path d="M 101.1726,769.152 L 104.574,769.152 L 104.574,771.703 L 101.1726,771.703 L 101.1726,769.152" fill="none" stroke="#000000" stroke-width="0.22356620000000002"/>
	<path d="M 96.637,772.27 L 100.0384,772.27 L 100.0384,774.82 L 96.637,774.82 L 96.637,772.27" fill="none" stroke="#000000" stroke-width="0.22356620000000002"/>
	<path d="M 100.887,772.5528 L 103.441,772.5528 L 103.441,775.953 L 100.887,775.953 L 100.887,772.5528" fill="none" stroke="#000000" stroke-width="0.22356620000000002"/>
	<path d="M 35.7462,772.27 L 97.99756,772.27 L 97.99756,772.836 L 35.7462,772.836 L 35.7462,772.27" fill="none" stroke="#000000" stroke-width="0.22356620000000002"/>
	<path d="M 34.84,775.672 L 36.332,775.672 L 36.332,776.238 L 34.84,776.238 L 34.84,775.672" fill="none" stroke="#000000" stroke-width="0.22356620000000002"/>
	<path d="M 37.824,775.672 L 39.316,775.672 L 39.316,776.238 L 37.824,776.238 L 37.824,775.672" fill="none" stroke="#000000" stroke-width="0.22356620000000002"/>
	<path d="M 40.809,775.672 L 42.301,775.672 L 42.301,776.238 L 40.809,776.238 L 40.809,775.672" fill="none" stroke="#000000" stroke-width="0.22356620000000002"/>
	<path d="M 43.793,775.672 L 45.285,775.672 L 45.285,776.238 L 43.793,776.238 L 43.793,775.672" fill="none" stroke="#000000" stroke-width="0.22356620000000002"/>
	<path d="M 46.777,775.672 L 48.265,775.672 L 48.265,776.238 L 46.777,776.238 L 46.777,775.672" fill="none" stroke="#000000" stroke-width="0.22356620000000002"/>
	<path d="M 49.762,775.672 L 51.25,775.672 L 51.25,776.238 L 49.762,776.238 L 49.762,775.672" fill="none" stroke="#000000" stroke-width="0.22356620000000002"/>
	<path d="M 52.742,775.672 L 54.234,775.672 L 54.234,776.238 L 52.742,776.238 L 52.742,775.672" fill="none" stroke="#000000" stroke-width="0.22356620000000002"/>
	<path d="M 55.727,775.672 L 57.219,775.672 L 57.219,776.238 L 55.727,776.238 L 55.727,775.672" fill="none" stroke="#000000" stroke-width="0.22356620000000002"/>
	<path d="M 58.711,775.672 L 60.203,775.672 L 60.203,776.238 L 58.711,776.238 L 58.711,775.672" fill="none" stroke="#000000" stroke-width="0.22356620000000002"/>
	<path d="M 61.695,775.672 L 63.187,775.672 L 63.187,776.238 L 61.695,776.238 L 61.695,775.672" fill="none" stroke="#000000" stroke-width="0.22356620000000002"/>
	<path d="M 160.133,775.672 L 161.625,775.672 L 161.625,776.238 L 160.133,776.238 L 160.133,775.672" fill="none" stroke="#000000" stroke-width="0.22356620000000002"/>
	<path d="M 163.117,775.672 L 164.609,775.672 L 164.609,776.238 L 163.117,776.238 L 163.117,775.672" fill="none" stroke="#000000" stroke-width="0.22356620000000002"/>
	<path d="M 166.098,775.672 L 167.594,775.672 L 167.594,776.238 L 166.098,776.238 L 166.098,775.672" fill="none" stroke="#000000" stroke-width="0.22356620000000002"/>
	<path d="M 169.082,775.672 L 170.574,775.672 L 170.574,776.238 L 169.082,776.238 L 169.082,775.672" fill="none" stroke="#000000" stroke-width="0.22356620000000002"/>
	<path d="M 172.066,775.672 L 173.558,775.672 L 173.558,776.238 L 172.066,776.238 L 172.066,775.672" fill="none" stroke="#000000" stroke-width="0.22356620000000002"/>
	<path d="M 175.051,775.672 L 176.543,775.672 L 176.543,776.238 L 175.051,776.238 L 175.051,775.672" fill="none" stroke="#000000" stroke-width="0.22356620000000002"/>
	<path d="M 178.035,775.672 L 179.527,775.672 L 179.527,776.238 L 178.035,776.238 L 178.035,775.672" fill="none" stroke="#000000" stroke-width="0.22356620000000002"/>
	<path d="M 181.02,775.672 L 182.512,775.672 L 182.512,776.238 L 181.02,776.238 L 181.02,775.672" fill="none" stroke="#000000" stroke-width="0.22356620000000002"/>
	<path d="M 184.004,775.672 L 185.492,775.672 L 185.492,776.238 L 184.004,776.238 L 184.004,775.672" fill="none" stroke="#000000" stroke-width="0.22356620000000002"/>
	<path d="M 186.988,775.672 L 188.476,775.672 L 188.476,776.238 L 186.988,776.238 L 186.988,775.672" fill="none" stroke="#000000" stroke-width="0.22356620000000002"/>
	<path d="M 57.59,777.938 L 100.887,777.938 L 100.887,778.504 L 57.59,778.504 L 57.59,777.938" fill="none" stroke="#000000" stroke-width="0.22356620000000002"/>
	<path d="M 56.102,848.309 L 59.645,848.309 L 59.645,851.852 L 56.102,851.852 L 56.102,848.309" fill="none" stroke="#000000" stroke-width="0.22356620000000002"/>
	<path d="M 57.59,778.2776 L 58.156,778.2776 L 58.156,849.7262 L 57.59,849.7262 L 57.59,778.2776" fill="none" stroke="#000000" stroke-width="0.22356620000000002"/>
	<path d="M 68.219,791.262 L 93.234,791.262 L 93.234,791.828 L 68.219,791.828 L 68.219,791.262" fill="none" stroke="#000000" stroke-width="0.22356620000000002"/>
	<path d="M 68.219,841.789 L 79.414,841.789 L 79.414,842.355 L 68.219,842.355 L 68.219,841.789" fill="none" stroke="#000000" stroke-width="0.22356620000000002"/>
	<path d="M 77.359,848.309 L 80.902,848.309 L 80.902,851.852 L 77.359,851.852 L 77.359,848.309" fill="none" stroke="#000000" stroke-width="0.22356620000000002"/>
	<path d="M 68.219,791.6016 L 68.785,791.6016 L 68.785,842.0154 L 68.219,842.0154 L 68.219,791.6016" fill="none" stroke="#000000" stroke-width="0.22356620000000002"/>
	<path d="M 78.848,842.1286 L 79.414,842.1286 L 79.414,849.7262 L 78.848,849.7262 L 78.848,842.1286" fill="none" stroke="#000000" stroke-width="0.22356620000000002"/>
	<path d="M 70.273,801.113 L 70.839,801.113 L 70.839,815.851 L 70.273,815.851 L 70.273,801.113" fill="none" stroke="#000000" stroke-width="0.22356620000000002"/>
	<path d="M 167.219,801.113 L 167.785,801.113 L 167.785,815.851 L 167.219,815.851 L 167.219,801.113" fill="none" stroke="#000000" stroke-width="0.22356620000000002"/>
	<path d="M 98.621,848.309 L 102.164,848.309 L 102.164,851.852 L 98.621,851.852 L 98.621,848.309" fill="none" stroke="#000000" stroke-width="0.22356620000000002"/>
	<path d="M 100.109,804.656 L 100.676,804.656 L 100.676,849.7262 L 100.109,849.7262 L 100.109,804.656" fill="none" stroke="#000000" stroke-width="0.22356620000000002"/>
	<path d="M 170.973,820.176 L 171.543,820.176 L 171.543,842.922 L 170.973,842.922 L 170.973,820.176" fill="none" stroke="#000000" stroke-width="0.22356620000000002"/>
	<path d="M 119.879,848.309 L 123.422,848.309 L 123.422,851.852 L 119.879,851.852 L 119.879,848.309" fill="none" stroke="#000000" stroke-width="0.22356620000000002"/>
	<path d="M 155.879,820.176 L 171.20100000000002,820.176 L 171.20100000000002,820.742 L 155.879,820.742 L 155.879,820.176" fill="none" stroke="#000000" stroke-width="0.22356620000000002"/>
	<path d="M 121.367,842.355 L 171.20100000000002,842.355 L 171.20100000000002,842.922 L 121.367,842.922 L 121.367,842.355" fill="none" stroke="#000000" stroke-width="0.22356620000000002"/>
	<path d="M 121.367,842.6952 L 121.934,842.6952 L 121.934,849.7262 L 121.367,849.7262 L 121.367,842.6952" fill="none" stroke="#000000" stroke-width="0.22356620000000002"/>
	<path d="M 70.273,830.594 L 70.84,830.594 L 70.84,837.68 L 70.273,837.68 L 70.273,830.594" fill="none" stroke="#000000" stroke-width="0.22356620000000002"/>
	<path d="M 70.6132,837.113 L 77.359,837.113 L 77.359,837.68 L 70.6132,837.68 L 70.6132,837.113" fill="none" stroke="#000000" stroke-width="0.22356620000000002"/>
	<path d="M 160.699,837.113 L 167.785,837.113 L 167.785,837.68 L 160.699,837.68 L 160.699,837.113" fill="none" stroke="#000000" stroke-width="0.22356620000000002"/>
	<path d="M 167.219,830.594 L 167.785,830.594 L 167.785,837.3398 L 167.219,837.3398 L 167.219,830.594" fill="none" stroke="#000000" stroke-width="0.22356620000000002"/>
	<path d="M 10.039,837.68 L 13.578,837.68 L 13.578,841.223 L 10.039,841.223 L 10.039,837.68" fill="none" stroke="#000000" stroke-width="0.22356620000000002"/>
	<path d="M 17.125,837.68 L 20.668,837.68 L 20.668,841.223 L 17.125,841.223 L 17.125,837.68" fill="none" stroke="#000000" stroke-width="0.22356620000000002"/>
	<path d="M 24.211,837.68 L 27.754,837.68 L 27.754,841.223 L 24.211,841.223 L 24.211,837.68" fill="none" stroke="#000000" stroke-width="0.22356620000000002"/>
	<path d="M 19.250799999999998,839.168 L 25.6282,839.168 L 25.6282,839.734 L 19.250799999999998,839.734 L 19.250799999999998,839.168" fill="none" stroke="#000000" stroke-width="0.22356620000000002"/>
	<path d="M 31.297,837.68 L 34.84,837.68 L 34.84,841.223 L 31.297,841.223 L 31.297,837.68" fill="none" stroke="#000000" stroke-width="0.22356620000000002"/>
	<path d="M 41.645,837.68 L 42.211,837.68 L 42.211,841.223 L 41.645,841.223 L 41.645,837.68" fill="none" stroke="#000000" stroke-width="0.22356620000000002"/>
	<path d="M 181.109,837.68 L 181.675,837.68 L 181.675,841.223 L 181.109,841.223 L 181.109,837.68" fill="none" stroke="#000000" stroke-width="0.22356620000000002"/>
	<path d="M 188.477,837.68 L 192.02,837.68 L 192.02,841.223 L 188.477,841.223 L 188.477,837.68" fill="none" stroke="#000000" stroke-width="0.22356620000000002"/>
	<path d="M 195.566,837.68 L 199.109,837.68 L 199.109,841.223 L 195.566,841.223 L 195.566,837.68" fill="none" stroke="#000000" stroke-width="0.22356620000000002"/>
	<path d="M 202.652,837.68 L 206.195,837.68 L 206.195,841.223 L 202.652,841.223 L 202.652,837.68" fill="none" stroke="#000000" stroke-width="0.22356620000000002"/>
	<path d="M 197.6918,839.168 L 204.0692,839.168 L 204.0692,839.734 L 197.6918,839.734 L 197.6918,839.168" fill="none" stroke="#000000" stroke-width="0.22356620000000002"/>
	<path d="M 209.738,837.68 L 213.281,837.68 L 213.281,841.223 L 209.738,841.223 L 209.738,837.68" fill="none" stroke="#000000" stroke-width="0.22356620000000002"/>
	<path d="M 36.613,842.711 L 40.156,842.711 L 40.156,843.277 L 36.613,843.277 L 36.613,842.711" fill="none" stroke="#000000" stroke-width="0.22356620000000002"/>
	<path d="M 43.699,842.711 L 47.242,842.711 L 47.242,843.277 L 43.699,843.277 L 43.699,842.711" fill="none" stroke="#000000" stroke-width="0.22356620000000002"/>
	<path d="M 176.078,842.711 L 179.621,842.711 L 179.621,843.277 L 176.078,843.277 L 176.078,842.711" fill="none" stroke="#000000" stroke-width="0.22356620000000002"/>
	<path d="M 183.164,842.711 L 186.707,842.711 L 186.707,843.277 L 183.164,843.277 L 183.164,842.711" fill="none" stroke="#000000" stroke-width="0.22356620000000002"/>
	<path d="M 41.645,844.766 L 42.211,844.766 L 42.211,848.309 L 41.645,848.309 L 41.645,844.766" fill="none" stroke="#000000" stroke-width="0.22356620000000002"/>
	<path d="M 181.109,844.766 L 181.675,844.766 L 181.675,848.309 L 181.109,848.309 L 181.109,844.766" fill="none" stroke="#000000" stroke-width="0.22356620000000002"/>
</svg>
