<?xml version="1.0" encoding="UTF-8" standalone="no"?>
<svg
   xmlns:dc="http://purl.org/dc/elements/1.1/"
   xmlns:cc="http://creativecommons.org/ns#"
   xmlns:rdf="http://www.w3.org/1999/02/22-rdf-syntax-ns#"
   xmlns:svg="http://www.w3.org/2000/svg"
   xmlns="http://www.w3.org/2000/svg"
   xmlns:sodipodi="http://sodipodi.sourceforge.net/DTD/sodipodi-0.dtd"
   xmlns:inkscape="http://www.inkscape.org/namespaces/inkscape"
   height="600px"
   version="1.1"
   viewBox="-6.9084705 -6.9084705 82.557941 82.557941"
   width="600px"
   id="svg2"
   inkscape:version="0.91 r13725"
   sodipodi:docname="layer2.svg">
  <metadata
     id="metadata34">
    <rdf:RDF>
      <cc:Work
         rdf:about="">
        <dc:format>image/svg+xml</dc:format>
        <dc:type
           rdf:resource="http://purl.org/dc/dcmitype/StillImage" />
        <dc:title></dc:title>
      </cc:Work>
    </rdf:RDF>
  </metadata>
  <sodipodi:namedview
     pagecolor="#ffffff"
     bordercolor="#666666"
     borderopacity="1"
     objecttolerance="10"
     gridtolerance="10"
     guidetolerance="10"
     inkscape:pageopacity="0"
     inkscape:pageshadow="2"
     inkscape:window-width="640"
     inkscape:window-height="480"
     id="namedview32"
     showgrid="false"
     inkscape:zoom="0.39333333"
     inkscape:cx="300"
     inkscape:cy="300"
     inkscape:window-x="0"
     inkscape:window-y="0"
     inkscape:window-maximized="0"
     inkscape:current-layer="svg2" />
  <defs
     id="defs4" />
  <path
     d="M 0.0,0.0 L 68.741,0.0 L 68.741,68.741 L 0.0,68.741 L 0.0,0.0"
     fill="none"
     stroke="#000000"
     stroke-width="0.068741"
     id="path6" />
  <path
     d="M 24.52,36.553 L 36.567,36.553 L 36.567,36.638 L 24.52,36.638 L 24.52,36.553"
     fill="none"
     stroke="#000000"
     stroke-width="0.068741"
     id="path8" />
  <path
     d="M 21.402,36.27 L 36.567,36.27 L 36.567,36.355 L 21.402,36.355 L 21.402,36.27"
     fill="none"
     stroke="#000000"
     stroke-width="0.068741"
     id="path10" />
  <path
     d="M 27.638,35.986 L 36.567,35.986 L 36.567,36.071 L 27.638,36.071 L 27.638,35.986"
     fill="none"
     stroke="#000000"
     stroke-width="0.068741"
     id="path12" />
  <path
     d="M 30.756,35.703 L 36.567,35.703 L 36.567,35.788 L 30.756,35.788 L 30.756,35.703"
     fill="none"
     stroke="#000000"
     stroke-width="0.068741"
     id="path14" />
  <path
     d="M 24.52,36.511 L 25.37,36.511 L 25.37,48.878 L 24.52,48.878 L 24.52,36.511"
     fill="none"
     stroke="#000000"
     stroke-width="0.068741"
     id="path16" />
  <path
     d="M 0.0,47.878 L 25.37,47.878 L 25.37,49.663 L 0.0,49.663 L 0.0,47.878"
     fill="none"
     stroke="#000000"
     stroke-width="0.068741"
     id="path18" />
  <path
     d="M 21.402,36.227 L 22.252,36.227 L 22.252,41.678 L 21.402,41.678 L 21.402,36.227"
     fill="none"
     stroke="#000000"
     stroke-width="0.068741"
     id="path20" />
  <path
     d="M 0.0,40.678 L 22.252,40.678 L 22.252,42.463 L 0.0,42.463 L 0.0,40.678"
     fill="none"
     stroke="#000000"
     stroke-width="0.068741"
     id="path22" />
  <path
     d="M 0.0,15.477 L 28.488,15.477 L 28.488,17.263 L 0.0,17.263 L 0.0,15.477"
     fill="none"
     stroke="#000000"
     stroke-width="0.068741"
     id="path24" />
  <path
     d="M 27.638,16.263 L 28.488,16.263 L 28.488,36.114 L 27.638,36.114 L 27.638,16.263"
     fill="none"
     stroke="#000000"
     stroke-width="0.068741"
     id="path26" />
  <path
     d="M 0.0,8.277 L 31.607,8.277 L 31.607,10.063 L 0.0,10.063 L 0.0,8.277"
     fill="none"
     stroke="#000000"
     stroke-width="0.068741"
     id="path28" />
  <path
     d="M 30.756,9.063 L 31.607,9.063 L 31.607,35.83 L 30.756,35.83 L 30.756,9.063"
     fill="none"
     stroke="#000000"
     stroke-width="0.068741"
     id="path30" />
</svg>
